<svg xmlns="http://www.w3.org/2000/svg" xmlns:xlink="http://www.w3.org/1999/xlink" width="101" height="100" viewBox="0 0 101 100">
    <defs>
        <path id="a" d="M0 .52h100.462v98.776H0z"/>
    </defs>
    <g fill="none" fill-rule="evenodd">
        <g transform="translate(0 .185)">
            <mask id="b" fill="#fff">
                <use xlink:href="#a"/>
            </mask>
            <path fill="#FFF" d="M56.689.52h-.002c-11.7 0-24.508 3.902-36.068 10.986C9.575 18.273 2.431 28.612.504 40.616c-1.967 12.243 1.88 25.157 10.552 35.43 12.472 14.776 29.428 23.25 46.52 23.25 9.008 0 17.788-2.463 25.39-7.123 10.956-6.712 17.165-19.07 17.484-34.795.267-13.191-3.756-27.948-10.762-39.473C82.873 6.694 71.154.52 56.688.52" mask="url(#b)"/>
        </g>
        <path fill="#F29E00" d="M85.497 20.658c12.722 20.929 15.757 54.719-5.088 67.493-20.845 12.774-47.992 5.76-65.608-15.108-15.79-18.705-12.47-44.371 8.375-57.145 20.846-12.774 49.598-16.17 62.32 4.76"/>
        <path fill="#FFF" d="M50.924 71.747c-8.797 0-16.041-6.614-17.089-15.161h34.187c-1.056 8.547-8.3 15.161-17.098 15.161m0-51.92c-19.095 0-31.026 12.872-31.026 32.043 0 19.182 11.93 28.488 31.026 28.488 19.095 0 31.035-9.306 31.035-28.488 0-19.171-11.94-32.043-31.035-32.043"/>
    </g>
</svg>
