<?xml version="1.0" encoding="utf-8"?>
<!-- Generator: Adobe Illustrator 17.0.1, SVG Export Plug-In . SVG Version: 6.00 Build 0)  -->
<!DOCTYPE svg PUBLIC "-//W3C//DTD SVG 1.1//EN" "http://www.w3.org/Graphics/SVG/1.1/DTD/svg11.dtd">
<svg version="1.1" id="Слой_1" xmlns="http://www.w3.org/2000/svg" xmlns:xlink="http://www.w3.org/1999/xlink" x="0px" y="0px"
	 width="100%" height="100%" viewBox="0 0 445.5 352" enable-background="new 0 0 445.5 352" xml:space="preserve">
<g>
	<path opacity="0.6" fill="#C9C9C9" d="M434.4278,329.8443c-0.0684-0.8389-0.2471-2.2002-0.1026-3.0371
		c0.1143-0.6319,0.4834-0.5293,0.583-1.253c-0.8525-0.2431-0.7461-1.5322-0.5156-2.7451c0.2481-1.2959,0.2832-0.9326,0.2324-2.0498
		c-0.0527-1.1836-0.3086-1.4219-0.2041-2.9658c0.0869-1.2637,0.6201-2.6895,0.585-3.8379c-0.0234-0.7529-0.4356-1.8232-0.4941-2.751
		c-0.0625-0.9443,0.2041-0.8681-0.0411-2.2353c-0.3925-2.1836-1.0654-4.1651,0.209-5.4356
		c-1.7041-1.9541-0.832-3.3808,0.1309-5.5371c-0.7735,0.1104-0.7871-0.6045-0.7617-1.5635
		c0.0351-1.1562,0.4961-0.5166,0.2382-2.0527c-0.1093-0.6338-0.5136-0.4756-0.4707-1.5088
		c0.0235-0.5752,0.5586-0.6562,0.5821-1.0185c0.0449-0.7647-0.2207-1.375-0.2598-2.1787c-0.1348-3.1114,0.3535-3.4571-0.7764-6.3213
		c-0.8877-2.2471,0.0381-2.6104,0.419-4.8086c0.4971-2.8985,0.1347-6.7705,0.9385-9.4229c0.3935-1.3008,0.5634-1.0683,0.5283-2.8994
		c-0.0264-1.1387,0.0664-2.1797,0.0801-3.2139c0.0136-0.9384-0.2481-1.916-0.2188-2.7128c0.0371-1.1202,0.7246-2.4649,1.0293-3.293
		c-0.6406-1.6543-0.9219-1.1416-0.3516-2.7334c0.4903-1.3731,0.6563-0.499,0.3887-2.2822
		c-0.1894-1.2705-0.7383-2.0166-0.5078-3.5752c0.1309-0.8741,0.6484-1.0547,0.5371-2.3379c-1.543,0.1054-1.2334-2.5069-1.416-4.6153
		c-0.1621-1.9004-0.5703-3.4824-0.5938-5.4843c-0.0293-2.628,0.3106-5.253,0.4668-7.835c0.1133-1.8926-0.0058-3.3779-0.0488-5.2432
		c-0.0879-3.8623,2.2344-7.4668,1.3242-10.9541c-0.8554-3.2607-0.3203-3.8652,1.1416-5.5713
		c-0.3437-0.5683-0.6162-1.6132-0.5107-2.6123c0.0898-0.8398,0.5742-1.0117,0.6484-1.5058c0.1446-0.9248-0.0605-0.7461-0.08-1.7178
		c-0.0235-1.2705-0.043-2.9248,0.0683-4.042c0.0391-0.4111,0.0742-0.8047,0.2266-1.5908c0.125-0.6357,0.3281-0.9717,0.3847-1.6455
		c-1.1875-0.5918-0.874-2.1016-1.1718-3.7207c-0.2715-1.4785-0.8584-2.5479-1.0069-4.0996
		c-0.1513-1.5879-0.1308-1.8838-0.5224-3.3194c-0.3672-1.3486-0.4082-1.5976-0.5752-3.1679
		c-0.2686-2.5762-1.1963-4.6407-1.6768-7.0537c-0.5996-3.0147,0.4004-3.5157,0.4902-6.1114
		c0.0469-1.3164-0.1152-2.0498,0.1758-3.206c0.1602-0.6289,0.4864-0.7666,0.5879-1.3838c0.0664-0.3887-0.1035-0.9893-0.0635-1.3994
		c0.2471-2.584,0.9913-3.1875,1.5577-5.21c0.5439-1.9424,0.9863-4.6318,1.2295-6.8252c0.5224-4.75-0.8252-9.9892-0.4532-14.7744
		c0.1153-1.4873,0.6143-2.5635,0.8867-3.8975c0.2354-1.1523,0.2471-2.1396,0.3252-3.4179c0.0801-1.3057,0.2989-2.6348,0.25-3.9727
		c-0.0048-0.209-0.3886-3.0888-0.5214-2.7607c0.2168-0.5342,0.4882-0.9356,0.8066-1.1885
		c-0.5078-0.5977-0.4844-2.0293-0.7168-3.0811c-0.2061-0.9052-0.5-0.0791-0.457-1.3261c0.0215-0.5498,0.4804-1.1836,0.5566-1.7647
		c-0.9414-0.6377,0.0723-1.2451-0.0537-1.9463c-0.1064-0.5898-0.5947-0.8877-0.6436-1.3173
		c-0.1445-1.3448,0.5498-2.0831,0.8829-2.9346c-1.0713-1.9219-0.0254-4.6143-0.2559-7.1133
		c-0.2109-2.2266-0.2168-4.9531-0.1924-7.167c0.0322-2.4658,0.9287-4.0342,1.3018-6.2588c0.2617-1.5781,0.5381-2.0586,0.9951-3.375
		c0.4814-1.3818,0.4072-2.0498,0.54-3.5898c0.1192-1.3848,0.3828-2.7588,0.6114-4.0498c0.3613-2.0596-0.1387-1.835-0.3887-3.7364
		c-0.2393-1.8281,0.4902-2.6855,0.5664-4.1621c0.1152-2.2031-0.5156-1.7763-1.1875-2.7109
		c-0.7129-0.9922-0.8311-2.3965-0.7734-4.1367c0.0439-1.3125,0.0332-2.8789,0.1074-4.2227
		c0.1289-2.3076,1.0742-3.7178,1.1445-6.3545c0.0801-2.8056-0.0801-5.6963-0.7246-8.1347c-0.2988-1.1387-0.2813-2.044-0.457-3.295
		c-0.1846-1.3242-0.7578-2.2929-1.1387-3.4052c0.0019-0.8379,0-1.6719-0.002-2.5098c-0.0019-0.4853-0.0019-0.9697-0.0009-1.4531
		c0.1631-0.752,0.2802-1.4922,0.0722-2.1524c-0.0302-0.0957-0.0556-0.2129-0.0781-0.3437c0.002-0.2861,0.001-0.5733-0.001-0.8584
		c-0.0019-1.3565-0.0175-4.3867-0.0175-4.3867c-2.2715-0.3223-4.5508-0.6338-6.8418-0.9346
		c-2.4161-0.3184-7.002-0.0078-8.6348-0.8242c-1.1074-0.5508,0.1797-1.166-2.459-1.2549c-1.6055-0.0557-4.4043,0.6387-6.1777,0.7295
		c-1.086,0.0547-2.8496,0.2246-3.9239,0.0342c-0.8066-0.1485-0.6582-0.5655-1.5878-0.6963
		c-0.3536,0.9658-2.0098,0.8095-3.5665,0.5117c-1.6601-0.3145-1.1875-0.3457-2.6328-0.3213
		c-1.5293,0.0293-1.8496,0.3174-3.8369,0.1553c-1.624-0.1348-3.4365-0.7793-4.9209-0.7705
		c-0.9707,0.0068-2.375,0.4482-3.5713,0.4912c-1.2216,0.0439-1.1103-0.2559-2.8886-0.0137c-2.833,0.3867-5.42,1.1016-6.9991-0.3848
		c-2.5996,1.8887-4.4004,0.8565-7.1367-0.3007c0.1035,0.8867-0.8154,0.8847-2.0527,0.8252
		c-1.4883-0.0704-0.6426-0.5791-2.6367-0.3252c-0.8243,0.1074-0.6387,0.5752-1.9659,0.499c-0.7451-0.044-0.8232-0.6563-1.288-0.6934
		c-0.9864-0.0732-1.7832,0.2139-2.8262,0.2344c-4.0176,0.0752-4.4414-0.4912-8.1895,0.7207
		c-2.9404,0.9492-3.3632-0.1182-6.1855-0.6074c-3.7119-0.6494-8.7246-0.3399-12.1074-1.3272
		c-1.6573-0.4853-1.3516-0.6718-3.7139-0.6787c-1.4697-0.0029-2.8106-0.1357-4.1455-0.1797c-1.209-0.04-2.4834,0.2315-3.5059,0.1797
		c-1.4453-0.0732-3.1504-0.8984-4.2011-1.2666c-2.1641,0.6885-1.5157,1.0196-3.543,0.3291
		c-1.7461-0.5957-0.6143-0.7617-2.9277-0.5058c-1.6446,0.1806-2.6368,0.79-4.6368,0.4814
		c-1.1191-0.1709-1.3242-0.7666-2.9902-0.6728c0.0654,1.7617-3.2871,1.3398-6.0176,1.4912
		c-2.4609,0.1347-4.5215,0.5547-7.1054,0.5283c-3.3907-0.0371-6.7598-0.4951-10.0831-0.7432
		c-2.4365-0.1816-4.3564-0.0859-6.7675-0.0859c-4.9854-0.0029-9.5244-2.75-14.0674-1.8027
		c-4.2442,0.8867-5.002,0.2587-7.1338-1.4541c-0.749,0.3779-2.1084,0.6601-3.3916,0.5107c-1.082-0.124-1.2754-0.6797-1.9121-0.7803
		c-1.1856-0.1904-0.9668,0.0508-2.2207,0.0449c-1.6406-0.0048-3.7735-0.0293-5.211-0.1845
		c-0.5312-0.0537-1.0332-0.1074-2.041-0.2989c-0.8144-0.1621-1.2373-0.4023-2.1025-0.4843
		c-0.8193,1.3349-2.7549,0.9375-4.8565,1.2343c-1.9199,0.2715-3.3261,0.9112-5.3349,1.0362
		c-2.0576,0.1328-2.4404,0.1025-4.3086,0.5088c-1.7539,0.3838-2.0772,0.4238-4.1143,0.5683
		c-3.3369,0.2393-6.039,1.2412-9.1748,1.7237c-3.9209,0.6045-4.5166-0.5508-7.8623-0.7227
		c-1.6953-0.0889-2.6504,0.0762-4.125-0.2852c-0.8047-0.1992-0.9668-0.5751-1.7597-0.7089c-0.5-0.085-1.2803,0.0927-1.8096,0.0351
		c-3.3193-0.3525-4.0635-1.2168-6.6475-1.916c-2.4785-0.6738-5.9267-1.2529-8.7461-1.5869
		c-6.1035-0.7256-12.9257,0.6719-19.08,0.1182c-1.9141-0.1719-3.2774-0.7706-4.9844-1.1163
		c-1.4746-0.3007-2.7481-0.3398-4.3946-0.4619c-1.6816-0.1259-3.3808-0.4121-5.1132-0.3935
		c-0.2696,0.0019-4.002,0.3594-3.5821,0.5215c-0.6816-0.2598-1.1884-0.586-1.4961-0.9522
		c-0.7978,0.5635-2.6425,0.4961-4.0087,0.7354c-1.1807,0.208-0.1299,0.5683-1.7315,0.4853
		c-0.7109-0.0371-1.5059-0.581-2.2519-0.6846c-0.8672,1.0586-1.6036-0.1162-2.5157,0.0118
		c-0.7636,0.1035-1.1699,0.6533-1.7275,0.6953c-1.7432,0.1318-2.6631-0.6826-3.7451-1.085
		c-2.5274,1.1709-5.9532-0.0967-9.1885,0.1045c-2.8818,0.1758-6.3994,0.1123-9.2529,0.0205
		c-3.1817-0.0996-5.1621-1.166-8.0118-1.6494c-2.0234-0.3418-2.6328-0.6719-4.3066-1.2295
		c-1.7637-0.585-2.6269-0.5166-4.6064-0.7119c-1.7803-0.1729-3.542-0.5078-5.1963-0.8027c-2.6387-0.4707-2.375,0.1064-4.8369,0.3418
		c-2.3702,0.2236-3.4424-0.6319-5.3428-0.7598c-2.836-0.1914-2.3203,0.542-3.5527,1.2793
		c-1.3165,0.7891-3.1338,0.8867-5.3721,0.7744c-1.6924-0.085-3.7178-0.1191-5.4424-0.2393
		c-2.9727-0.2041-4.7461-1.3193-8.1455-1.4755c-3.6143-0.1641-7.3506-0.0606-10.5244,0.6074
		c-1.4834,0.3125-2.6543,0.2656-4.2735,0.4326c-2.5009,0.2568-4.0615,1.4795-6.6025,1.5586
		c-1.8691,0.0586-3.9795-1.041-5.7285-0.5938c-1.3037,0.3311-5.1904,0.0205-5.1885,0.7354c0,0.0039,0.002,2.4014,0.0059,4.876
		c-0.0313,0.2011-0.0645,0.4004-0.0948,0.5996c-0.2841,1.875-0.0205,5.4267-0.7392,6.6904
		c-0.4873,0.8613-1.0235-0.1328-1.1074,1.9092c-0.0508,1.2451,0.5488,3.4121,0.6259,4.7871
		c0.0489,0.8389,0.1944,2.2051,0.0225,3.0381c-0.1309,0.626-0.4961,0.5127-0.6123,1.2334c0.8447,0.2715,0.7051,1.5566,0.4404,2.7617
		c-0.2793,1.2871-0.3047,0.9209-0.2851,2.041c0.0195,1.1846,0.2715,1.4317,0.125,2.9707c-0.1192,1.2608-0.6895,2.6641-0.6856,3.8184
		c0.0059,0.75,0.3906,1.8388,0.4229,2.7637c0.0371,0.9472-0.2256,0.8613-0.0157,2.2382c0.3331,2.1934,0.9541,4.1973-0.3525,5.4229
		c1.6504,2.0107,0.7422,3.4082-0.2783,5.5312c0.7783-0.083,0.7744,0.6319,0.7226,1.5899c-0.0654,1.1543-0.5127,0.5-0.2919,2.0429
		c0.0898,0.6397,0.5039,0.4952,0.4316,1.5235c-0.0381,0.5742-0.5762,0.6377-0.6094,0.999
		c-0.0664,0.7647,0.1836,1.3818,0.1992,2.1904c0.0577,3.1123-0.4414,3.4414,0.6133,6.3418c0.8262,2.2774-0.1094,2.6084-0.543,4.794
		c-0.5761,2.8799-0.3164,6.7637-1.1894,9.3847c-0.4287,1.2852-0.5898,1.0489-0.6016,2.8799c-0.0058,1.1387-0.123,2.1758-0.166,3.211
		c-0.039,0.9365,0.1973,1.9257,0.1494,2.7197c-0.0654,1.1172-0.792,2.4404-1.1181,3.2559c0.6006,1.6767,0.8925,1.1728,0.2812,2.7431
		c-0.5254,1.3574-0.668,0.4785-0.4472,2.2705c0.1542,1.2754,0.6845,2.041,0.4121,3.5908c-0.1524,0.8692-0.6778,1.0323-0.5957,2.3204
		c1.5429-0.0567,1.1679,2.5459,1.2929,4.6591c0.1114,1.9082,0.4766,3.502,0.4492,5.5049c-0.0419,2.626-0.4492,5.2383-0.6718,7.8125
		c-0.1631,1.8906-0.0821,3.375-0.0899,5.2461c-0.0136,3.8623-2.4316,7.3848-1.6103,10.9033
		c0.7685,3.2881,0.2177,3.875-1.2901,5.5303c0.3301,0.5801,0.5782,1.6318,0.4444,2.627c-0.1123,0.8388-0.6006,0.9921-0.6905,1.4824
		c-0.167,0.9219,0.0411,0.75,0.0352,1.7226c-0.0078,1.2686-0.0332,2.9248-0.1719,4.0381c-0.0488,0.4092-0.0957,0.8018-0.2676,1.5811
		c-0.1425,0.6308-0.3525,0.959-0.4277,1.6299c1.168,0.6328,0.8154,2.1318,1.0723,3.7587c0.2334,1.4903,0.789,2.5772,0.8965,4.1338
		c0.1123,1.5928,0.0839,1.8887,0.4375,3.337c0.333,1.3603,0.3671,1.6093,0.4902,3.1855c0.2031,2.5879,1.0762,4.6797,1.4922,7.1064
		c0.5215,3.0372-0.4912,3.502-0.6514,6.0928c-0.0791,1.3164,0.0635,2.0557-0.2568,3.1983c-0.1758,0.624-0.5059,0.7509-0.626,1.3652
		c-0.0732,0.3887,0.0791,0.9932,0.0283,1.4014c-0.3144,2.5732-1.0742,3.1533-1.6953,5.1562
		c-0.5937,1.9209-1.1094,4.5928-1.4082,6.7783c-0.6465,4.7305,0.5625,10.0147,0.0645,14.7852
		c-0.1524,1.4834-0.6797,2.541-0.9883,3.8652c-0.2656,1.1436-0.3037,2.1299-0.4121,3.4063
		c-0.1153,1.3017-0.3701,2.6211-0.3555,3.9609c0,0.21,0.3086,3.1016,0.4473,2.7764c-0.2295,0.5283-0.5118,0.9228-0.834,1.1601
		c0.4883,0.6162,0.4277,2.0469,0.6338,3.1035c0.1806,0.9131,0.498,0.0997,0.4218,1.3409c-0.0322,0.5527-0.5126,1.1679-0.6035,1.748
		c0.9248,0.669-0.1054,1.2412,0.003,1.9453c0.0908,0.5957,0.5722,0.9082,0.6084,1.3428c0.1084,1.3477-0.6045,2.0605-0.96,2.9014
		c1.0215,1.957-0.0977,4.6123,0.0703,7.1191c0.1504,2.2334,0.0889,4.959,0.0039,7.1699c-0.0976,2.4659-1.0351,4.001-1.4639,6.2119
		c-0.3056,1.5684-0.5947,2.0381-1.0869,3.337c-0.5136,1.3691-0.4589,2.041-0.6328,3.5722
		c-0.1562,1.3799-0.4531,2.7461-0.7148,4.0293c-0.4199,2.043,0.0888,1.8379,0.289,3.7471c0.1914,1.835-0.5605,2.6689-0.6757,4.1406
		c-0.1748,2.1983,0.4697,1.7959,1.1142,2.752c0.6895,1.0156,0.7686,2.4238,0.667,4.1611c-0.0801,1.3096-0.1094,2.8779-0.2187,4.2148
		c-0.1885,2.3038-1.17,3.6807-1.3125,6.3155c-0.1504,2.7988-0.0684,5.6972,0.5117,8.1523c0.2715,1.1504,0.2275,2.0557,0.3691,3.3135
		c0.2227,1.9336,1.2891,3.1406,1.3516,5.1123c0.0478,1.4463-0.9199,3.083-0.5313,4.4395c0.291,1.0078,0.0059,4.0214,0.6348,4.0185
		c0,0,6.958-0.0234,8.6133-0.0312c4.8672-0.0157,9.7383-0.0323,14.6054-0.0479c0.9122-0.0078,1.8243-0.0088,2.7383-0.0107
		c0.1446,0.3603,0.1367,0.6601,1.8907,0.7216c1.58,0.0538,4.33-0.6376,6.0751-0.7294c0.1114-0.0059,0.2354-0.0127,0.3604-0.0215
		c1.1641-0.0039,2.3301-0.0078,3.4941-0.0147c0.8008,0.1494,0.6524,0.5655,1.5684,0.6963c0.1563-0.4346,0.5791-0.6328,1.1289-0.7031
		c0.3496,0,0.6982-0.002,1.0488-0.002c0.4278,0.0371,0.8828,0.1075,1.3282,0.1944c1.6328,0.3154,1.1679,0.3466,2.5879,0.3183
		c1.5048-0.0254,1.8203-0.3154,3.7714-0.1504c1.6016,0.1319,3.3848,0.7793,4.8448,0.7705c0.9541-0.0068,2.3369-0.4502,3.5136-0.4892
		c1.2012-0.0449,1.0909,0.2558,2.8389,0.0117c2.7852-0.3867,5.333-1.1016,6.8838,0.3867c2.5576-1.8906,4.3291-0.8584,7.0205,0.2989
		c-0.1025-0.8858,0.8008-0.8829,2.0176-0.8233c1.4648,0.0693,0.6328,0.5772,2.5947,0.3233
		c0.8096-0.1045,0.6279-0.5752,1.9346-0.4971c0.7314,0.043,0.8066,0.6572,1.2656,0.6933c0.9707,0.0694,1.7539-0.2138,2.7812-0.2363
		c3.9512-0.0723,4.3672,0.4922,8.0508-0.7178c2.8946-0.9511,3.3125,0.1163,6.083,0.6084c3.6563,0.6455,8.584,0.3389,11.9112,1.3262
		c1.6308,0.4863,1.33,0.6719,3.6523,0.6777c1.4473,0.004,2.7647,0.1338,4.0781,0.1797c1.1895,0.041,2.4434-0.2314,3.4493-0.1777
		c1.4218,0.0723,3.0966,0.8955,4.1328,1.2646c2.1289-0.6884,1.4902-1.0185,3.4814-0.3291c1.7236,0.5967,0.6074,0.7627,2.8838,0.5069
		c1.6162-0.1836,2.5898-0.7901,4.5586-0.4815c1.1016,0.1719,1.3066,0.7686,2.9395,0.6729
		c-0.0635-1.7617,3.2343-1.3389,5.9238-1.4893c2.4179-0.1347,4.4433-0.5566,6.9844-0.5273
		c3.3349,0.0351,6.6484,0.4941,9.9169,0.7431c2.3975,0.1788,4.2862,0.0831,6.6563,0.085c4.9053,0.0039,9.3682,2.75,13.8389,1.8047
		c4.1738-0.8877,4.9179-0.2598,7.0156,1.4531c0.7383-0.3769,2.0732-0.6611,3.3359-0.5127c1.0625,0.127,1.2578,0.6817,1.877,0.7832
		c1.1699,0.1885,0.9551-0.0498,2.1894-0.0449c1.6094,0.0059,3.709,0.0322,5.1241,0.1846c0.5195,0.0537,1.0166,0.1054,2.0048,0.3008
		c0.8028,0.1611,1.2188,0.4004,2.0694,0.4843c0.8076-1.3379,2.7099-0.9375,4.7763-1.2363c1.8868-0.2705,3.2735-0.9092,5.2481-1.0361
		c2.0215-0.1299,2.4004-0.1006,4.2373-0.5078c1.7256-0.3829,2.0459-0.4219,4.0478-0.5694c3.2813-0.2383,5.9395-1.2392,9.0215-1.7226
		c3.8584-0.6035,4.4473,0.5537,7.7344,0.7246c1.668,0.0888,2.6064-0.0752,4.0566,0.2851c0.793,0.1993,0.9532,0.5743,1.7344,0.71
		c0.4883,0.083,1.2578-0.0938,1.7774-0.0381c3.2636,0.3555,3.998,1.2207,6.539,1.9209c2.4375,0.6699,5.8282,1.25,8.6035,1.5869
		c6.002,0.7227,12.711-0.6738,18.7657-0.1191c1.8808,0.1728,3.2236,0.7695,4.9013,1.1152c1.4522,0.3018,2.7041,0.3408,4.3233,0.4639
		c1.6523,0.124,3.3261,0.4131,5.0293,0.3935c0.2656-0.0029,3.9375-0.3603,3.5234-0.5214c0.6699,0.2607,1.1699,0.5839,1.4707,0.9531
		c0.7852-0.5625,2.5977-0.4971,3.9434-0.7354c1.1601-0.2099,0.125-0.5683,1.7011-0.4863c0.6993,0.0371,1.4815,0.582,2.2168,0.6846
		c0.8536-1.0586,1.5762,0.1162,2.4707-0.0098c0.754-0.1045,1.1543-0.6543,1.7012-0.6973c1.7168-0.1308,2.6192,0.6807,3.6836,1.085
		c2.4902-1.1689,5.8555,0.0986,9.0391-0.1016c2.834-0.1767,6.2929-0.1123,9.0996-0.0214c3.1289,0.1015,5.0762,1.1669,7.8808,1.6494
		c1.9883,0.3427,2.5879,0.6728,4.2344,1.2295c1.7344,0.5859,2.5879,0.5175,4.5332,0.7128c1.75,0.1739,3.4824,0.5079,5.1113,0.8038
		c2.5938,0.4716,2.3321-0.1065,4.754-0.3399c2.332-0.2265,3.3867,0.6319,5.2578,0.7588c2.7871,0.1904,2.2783-0.541,3.4951-1.2832
		c1.292-0.7861,3.081-0.8828,5.2822-0.7705c1.666,0.085,3.6543,0.1191,5.3535,0.2373c2.9239,0.207,4.6699,1.3232,8.0137,1.4775
		c3.5508,0.167,7.2285,0.0625,10.3477-0.6045c1.4589-0.3134,2.6093-0.2666,4.207-0.4335c1.0644-0.1124,1.9551-0.4073,2.8281-0.709
		c3.2344,1.707,6.4414,3.5234,10.1719,3.3828c1.4023-0.0518,2.8066-0.1055,4.2109-0.1592c1.1875-0.0449,3.8418-0.1543,3.8418-0.1543
		c0.2403-1.7686,0.4727-3.5449,0.6953-5.3291c0.2325-1.8818-0.123-5.4228,0.5625-6.7139c0.4629-0.875,1.0274,0.1036,1.0547-1.9443
		C435.1993,333.3589,434.541,331.2134,434.4278,329.8443z"/>
	<g>
		<path fill="#FFFFFF" d="M426.4356,311.7593c-0.0918-0.8037-0.3096-2.1064-0.1914-2.916c0.0898-0.6123,0.4492-0.5283,0.5205-1.2285
			c-0.8311-0.2012-0.7666-1.4443-0.5811-2.6192c0.1973-1.2568,0.2422-0.9082,0.1602-1.9814
			c-0.0869-1.1357-0.3438-1.3555-0.2891-2.8457c0.0449-1.2188,0.5156-2.6084,0.4453-3.7129
			c-0.0449-0.7226-0.4765-1.7383-0.5625-2.626c-0.0879-0.9062,0.17-0.8437-0.1093-2.1504c-0.4454-2.083-1.1563-3.9638,0.0351-5.2334
			c-1.7051-1.8134-0.9092-3.2216-0.0449-5.331c-0.7441,0.1348-0.7803-0.5518-0.7832-1.4756
			c-0.002-1.1113,0.4629-0.5156,0.166-1.9824c-0.124-0.6065-0.5117-0.4385-0.5029-1.4317c0.0049-0.5576,0.5205-0.6543,0.5322-1.0029
			c0.0195-0.7383-0.2559-1.3144-0.3164-2.0879c-0.2305-2.9863,0.2305-3.3379-0.9492-6.0488
			c-0.9239-2.1279-0.041-2.5108,0.2558-4.6406c0.3926-2.8077-0.0761-6.5176,0.6172-9.0987c0.3399-1.2656,0.5098-1.0498,0.418-2.8086
			c-0.0586-1.0937-0.002-2.0986-0.0215-3.0957c-0.0176-0.9023-0.3008-1.8349-0.2969-2.5996c0.002-1.0791,0.627-2.4004,0.8946-3.208
			c-0.6719-1.5664-0.9258-1.0615-0.4258-2.6133c0.4306-1.3408,0.6191-0.5078,0.3047-2.2129
			c-0.2227-1.2128-0.7754-1.9101-0.5996-3.4179c0.0976-0.8457,0.5937-1.0391,0.4443-2.2705
			c-1.4854,0.1611-1.2695-2.3614-1.5107-4.3838c-0.2149-1.8233-0.6573-3.3272-0.7403-5.252
			c-0.1094-2.5263,0.1367-5.0644,0.2071-7.5517c0.0507-1.8272-0.1114-3.25-0.209-5.044c-0.2051-3.7099,1.9257-7.2656,0.9365-10.5859
			c-0.9248-3.1016-0.4268-3.7051,0.9307-5.4033c-0.3497-0.5332-0.6456-1.5264-0.5743-2.4903
			c0.0625-0.8125,0.5215-0.9961,0.5821-1.4736c0.1093-0.8955-0.0821-0.7158-0.1309-1.6504
			c-0.0644-1.2197-0.1309-2.8105-0.0605-3.8887c0.0234-0.3984,0.0449-0.7783,0.1699-1.539
			c0.1006-0.6153,0.2861-0.9483,0.3183-1.5977c-1.1601-0.5224-0.9062-1.9873-1.2441-3.5332
			c-0.3096-1.4121-0.9082-2.4189-1.0986-3.9043c-0.1963-1.5224-0.1866-1.8076-0.6084-3.1738
			c-0.3965-1.2813-0.4444-1.5195-0.6524-3.0234c-0.3398-2.4698-1.2988-4.417-1.8379-6.7188
			c-0.6738-2.8789,0.2784-3.3984,0.2852-5.8984c0.0029-1.2676-0.1758-1.9678,0.0684-3.0879
			c0.1347-0.6123,0.4453-0.7578,0.5253-1.3574c0.0489-0.375-0.1328-0.9463-0.1054-1.3428c0.1582-2.4942,0.8593-3.1045,1.3418-5.0713
			c0.4648-1.8877,0.8125-4.4922,0.9775-6.6123c0.3565-4.5869-1.1064-9.5752-0.8955-14.1924
			c0.0664-1.4355,0.5156-2.4883,0.7363-3.7832c0.1914-1.1152,0.1709-2.0674,0.2061-3.2988c0.0371-1.2598,0.208-2.543,0.1201-3.8301
			c-0.0137-0.2012-0.4717-2.957-0.5898-2.6328c0.1933-0.5244,0.4433-0.9219,0.7421-1.1748
			c-0.5078-0.5557-0.5293-1.9346-0.788-2.9375c-0.2256-0.8643-0.4854-0.0576-0.4825-1.2559
			c0.002-0.5312,0.4287-1.1582,0.4834-1.7197c-0.9297-0.5791,0.0313-1.2012-0.1132-1.8701
			c-0.1192-0.5635-0.6006-0.8311-0.6602-1.2432c-0.1816-1.2891,0.4648-2.0254,0.7598-2.8574
			c-1.0938-1.8067-0.1641-4.4375-0.4678-6.832c-0.2705-2.1338-0.3623-4.7539-0.4053-6.8848
			c-0.0459-2.3731,0.7705-3.915,1.0606-6.0674c0.205-1.5293,0.458-2.0029,0.8593-3.2861c0.42-1.3487,0.3272-1.9873,0.4082-3.4746
			c0.0723-1.336,0.2832-2.667,0.4629-3.918c0.2891-1.9951-0.1884-1.7598-0.4882-3.5791c-0.2891-1.7481,0.3896-2.6025,0.4179-4.0264
			c0.043-2.1201-0.5527-1.6894-1.2304-2.5595c-0.7198-0.9297-0.879-2.2745-0.875-3.9493c0.0009-1.2656-0.0567-2.7724-0.0274-4.0664
			c0.0508-2.2246,0.9199-3.6162,0.9082-6.1552c-0.0107-2.7012-0.2539-5.4766-0.9512-7.7959
			c-0.3261-1.0821-0.3339-1.9561-0.5429-3.1524c-0.2207-1.2646-0.8028-2.1758-1.2051-3.2314
			c-0.0264-0.8047-0.0527-1.6084-0.0801-2.4131c-0.0156-0.4649-0.0312-0.9317-0.0469-1.3975
			c0.1348-0.7304,0.2246-1.4453,0.0039-2.0732c-0.0332-0.0908-0.0595-0.2041-0.0839-0.3272
			c-0.0098-0.2754-0.0196-0.5527-0.0293-0.8281c-0.044-1.3027-0.1524-4.2148-0.1524-4.2148
			c-2.2031-0.2237-4.415-0.4375-6.6347-0.6377c-2.3438-0.2129-6.7598,0.2627-8.3594-0.46
			c-1.0879-0.4883,0.1347-1.1299-2.4141-1.1133c-1.5527,0.0078-4.2324,0.7823-5.9404,0.9375
			c-1.0479,0.0957-2.7432,0.3272-3.7861,0.1836c-0.7852-0.1094-0.6543-0.5166-1.5557-0.6074
			c-0.3115,0.9434-1.917,0.8555-3.4248,0.6299c-1.6133-0.2393-1.1602-0.2871-2.5527-0.207
			c-1.4747,0.0859-1.7745,0.375-3.6993,0.2959c-1.5732-0.0655-3.3418-0.6182-4.7763-0.5528
			c-0.9366,0.0449-2.2774,0.5235-3.4307,0.6094c-1.1777,0.0879-1.0801-0.2041-2.7891,0.0986
			c-2.7207,0.4795-5.1992,1.2686-6.7675-0.1025c-2.4512,1.918-4.2227,0.9951-6.9004-0.0137
			c0.1299,0.8486-0.7598,0.8828-1.9551,0.8731c-1.4395-0.0118-0.6387-0.5332-2.5547-0.212
			c-0.793,0.1338-0.5986,0.5791-1.8848,0.5547c-0.7177-0.0117-0.8134-0.5996-1.2627-0.6162
			c-0.9541-0.0322-1.7168,0.2735-2.7216,0.334c-3.876,0.2246-4.3028-0.3018-7.8828,1.0059
			c-2.8096,1.0263-3.251,0.0175-5.9883-0.3457c-3.6065-0.4805-8.4336,0.0078-11.7305-0.8116
			c-1.6162-0.4023-1.3271-0.5927-3.6074-0.5087c-1.4199,0.0537-2.7158-0.0235-4.0059-0.0137
			c-1.1679,0.0078-2.3906,0.3193-3.3808,0.3066c-1.3965-0.0137-3.0664-0.7412-4.0938-1.0556
			c-2.0683,0.7451-1.4316,1.039-3.4082,0.4521c-1.707-0.5059-0.6182-0.71-2.8437-0.373c-1.5821,0.2392-2.5196,0.8603-4.459,0.6406
			c-1.0879-0.1211-1.3076-0.6875-2.9082-0.5322c0.1172,1.6923-3.1338,1.415-5.7657,1.665c-2.371,0.2236-4.3457,0.709-6.8398,0.7812
			c-3.2734,0.0938-6.541-0.2168-9.7578-0.3281c-2.3584-0.0781-4.209,0.0869-6.5352,0.1787
			c-4.8125,0.1875-9.2793-2.2783-13.6367-1.1933c-4.0703,1.0146-4.8203,0.4404-6.9307-1.125
			c-0.7128,0.3916-2.0146,0.7168-3.2587,0.623c-1.0469-0.0791-1.2539-0.6064-1.8692-0.6777
			c-1.1523-0.1367-0.9316,0.083-2.1435,0.1279c-1.5821,0.0576-3.6436,0.1152-5.0342,0.0235
			c-0.5147-0.0333-1.002-0.0625-1.9795-0.2129c-0.792-0.1221-1.208-0.337-2.0479-0.3829c-0.748,1.3155-2.6289,1.0098-4.6484,1.375
			c-1.8437,0.334-3.1836,1.003-5.1172,1.2012c-1.9824,0.2061-2.3515,0.1924-4.1445,0.6553
			c-1.6817,0.4365-1.9942,0.4873-3.9512,0.7041c-3.2168,0.3584-5.7959,1.4258-8.8057,2.0107
			c-3.7666,0.7325-4.3779-0.3564-7.6123-0.3945c-1.6406-0.0185-2.5566,0.1758-3.9902-0.1152
			c-0.7832-0.1602-0.9521-0.5147-1.7236-0.6143c-0.4834-0.0615-1.2315,0.1387-1.7432,0.1055
			c-3.2168-0.2119-3.9629-1.0147-6.4765-1.5899c-2.4131-0.5507-5.7598-0.9755-8.4942-1.1894
			c-5.9121-0.4619-12.4551,1.1416-18.4141,0.8476c-1.8515-0.0918-3.1875-0.6152-4.8457-0.8828
			c-1.4335-0.2324-2.665-0.2207-4.2558-0.2754c-1.627-0.0566-3.2783-0.2656-4.9492-0.1836
			c-0.2598,0.0147-3.8516,0.503-3.4414,0.6416c-0.668-0.2255-1.1661-0.5166-1.4746-0.8593
			c-0.751,0.5722-2.5342,0.5791-3.8467,0.8623c-1.1319,0.2451-0.1065,0.5517-1.6563,0.5332
			c-0.6865-0.0078-1.4717-0.501-2.1943-0.5703c-0.8057,1.0498-1.5527-0.0498-2.4277,0.1045
			c-0.7344,0.1308-1.1104,0.6748-1.6485,0.7363c-1.6777,0.1933-2.5898-0.5527-3.6465-0.8985
			c-2.4062,1.2237-5.75,0.1348-8.8681,0.4502c-2.7764,0.2832-6.1748,0.3565-8.9307,0.3799
			c-3.0742,0.0235-5.0176-0.9248-7.7852-1.2802c-1.9648-0.252-2.5625-0.545-4.1953-1.0166
			c-1.7207-0.4952-2.5527-0.3956-4.4687-0.5079c-1.7246-0.0986-3.4356-0.3535-5.043-0.5722
			c-2.5605-0.3535-2.2861,0.1924-4.6582,0.5117c-2.2803,0.3076-3.3418-0.4736-5.1816-0.5234
			c-2.7422-0.0752-2.2207,0.6084-3.3887,1.3681c-1.2461,0.8076-2.9971,0.9727-5.1631,0.9492
			c-1.6348-0.0175-3.5889,0.0303-5.2607-0.0195c-2.875-0.084-4.6221-1.0889-7.9082-1.1074
			c-3.4932-0.0195-7.0996,0.2246-10.1407,0.9883c-1.4218,0.3593-2.5527,0.3593-4.1132,0.581
			c-2.4043,0.3447-3.8731,1.5791-6.3243,1.753c-1.8027,0.1269-3.873-0.8477-5.5488-0.3516
			c-1.248,0.3711-5.0098,0.2207-4.9863,0.9072c0,0.0039,0.0762,2.3106,0.1562,4.6904c-0.0234,0.1934-0.0488,0.3858-0.0722,0.5801
			c-0.2159,1.8125,0.1474,5.2197-0.5059,6.4639c-0.4433,0.8457-0.9922-0.0899-1.0098,1.8769
			c-0.0097,1.2012,0.6368,3.2627,0.754,4.5791c0.0703,0.8077,0.2539,2.1163,0.1142,2.9219
			c-0.1064,0.6094-0.4629,0.5147-0.5527,1.211c0.8252,0.2285,0.7275,1.4697,0.5107,2.6386
			c-0.2305,1.2481-0.2656,0.8985-0.2119,1.9746c0.0566,1.1387,0.3076,1.3662,0.2139,2.8526
			c-0.0772,1.2178-0.584,2.5908-0.543,3.6972c0.0264,0.7227,0.4307,1.7539,0.4932,2.6436c0.0634,0.9092-0.1924,0.8379,0.0527,2.1533
			c0.3887,2.0977,1.0518,4.001-0.1729,5.2295c1.6573,1.8721,0.8243,3.251-0.0966,5.3311c0.749-0.1104,0.7666,0.5781,0.7451,1.5
			c-0.0274,1.1123-0.4766,0.5009-0.2188,1.9775c0.1094,0.6104,0.502,0.4561,0.4659,1.4473
			c-0.0206,0.5556-0.5381,0.6377-0.5577,0.9843c-0.039,0.7373,0.2188,1.3243,0.2598,2.0987
			c0.1504,2.9931-0.3184,3.3281,0.7891,6.0781c0.8691,2.1572-0.0235,2.5117-0.377,4.6299c-0.4668,2.793-0.0957,6.5176-0.8555,9.0723
			c-0.375,1.2539-0.539,1.0332-0.4931,2.7949c0.0303,1.0947-0.0528,2.0976-0.0596,3.0937c-0.0078,0.9024,0.251,1.8438,0.2285,2.6094
			c-0.0312,1.0781-0.6904,2.377-0.9785,3.1748c0.6309,1.5889,0.8965,1.0938,0.3555,2.627
			c-0.4649,1.3261-0.6309,0.4853-0.3623,2.2021c0.1904,1.2197,0.7256,1.9365,0.5088,3.4375
			c-0.1192,0.8418-0.6211,1.0186-0.5039,2.2539c1.4902-0.1113,1.207,2.4033,1.3945,4.4326c0.167,1.8301,0.5703,3.3506,0.6016,5.2754
			c0.0439,2.5283-0.2696,5.0567-0.4043,7.543c-0.0997,1.8232,0.0234,3.251,0.0742,5.0469
			c0.1084,3.7158-2.1153,7.1963-1.2149,10.5498c0.8438,3.1318,0.3301,3.7187-1.0722,5.3681
			c0.3359,0.5459,0.6054,1.5489,0.5078,2.5098c-0.0821,0.8096-0.5469,0.9766-0.6192,1.4531
			c-0.1347,0.8916,0.0625,0.7188,0.0869,1.6543c0.0313,1.2217,0.0577,2.8135-0.0419,3.8897
			c-0.0352,0.3965-0.0664,0.7744-0.209,1.5312c-0.1192,0.6133-0.3125,0.9375-0.3633,1.585
			c1.1484,0.5635,0.8555,2.0195,1.1523,3.5761c0.2715,1.4209,0.8438,2.4473,0.9942,3.9395
			c0.1562,1.5273,0.1396,1.8135,0.5254,3.1924c0.3632,1.2949,0.4043,1.5361,0.5722,3.0449c0.2754,2.4805,1.1817,4.46,1.6592,6.7793
			c0.5977,2.8994-0.3662,3.3857-0.4394,5.8848c-0.0362,1.2675,0.123,1.9726-0.1504,3.0849
			c-0.1504,0.6065-0.4639,0.7422-0.5606,1.3379c-0.0595,0.374,0.1065,0.9502,0.0713,1.3457
			c-0.2246,2.4873-0.9414,3.0733-1.4766,5.0244c-0.5146,1.8702-0.9296,4.461-1.1503,6.5752
			c-0.4776,4.5733,0.8535,9.6094,0.5214,14.2168c-0.1035,1.4317-0.58,2.4698-0.8359,3.7539
			c-0.2207,1.1104-0.2266,2.0625-0.293,3.292c-0.0703,1.2569-0.2744,2.5352-0.2207,3.8252
			c0.0078,0.2012,0.3926,2.9698,0.5196,2.6514c-0.2051,0.5166-0.4678,0.9072-0.7725,1.1504c0.4932,0.5722,0.4775,1.9502,0.71,2.9609
			c0.2031,0.8721,0.4843,0.0752,0.4492,1.2725c-0.0156,0.5312-0.459,1.1426-0.5274,1.7021
			c0.9121,0.6104-0.0634,1.2002,0.0625,1.8741c0.1055,0.5673,0.5791,0.8505,0.627,1.2646c0.1494,1.2939-0.5176,2.0078-0.834,2.8281
			c1.0449,1.8438,0.0479,4.4424,0.2871,6.8457c0.2149,2.1426,0.2383,4.7657,0.2246,6.8965c-0.0156,2.374-0.874,3.8877-1.2207,6.0303
			c-0.2441,1.5205-0.5097,1.9853-0.9453,3.2539c-0.4551,1.334-0.3789,1.9766-0.5,3.458c-0.1074,1.334-0.3516,2.6572-0.5654,3.9023
			c-0.3408,1.9834,0.1416,1.7647,0.3935,3.5928c0.2422,1.7578-0.457,2.5879-0.5234,4.0098
			c-0.0996,2.1191,0.5078,1.708,1.1621,2.6025c0.6953,0.9522,0.8184,2.3028,0.7715,3.9766
			c-0.0352,1.2627-0.0176,2.7715-0.082,4.0644c-0.1084,2.2217-1.0137,3.584-1.0684,6.1231
			c-0.0605,2.6992,0.1094,5.4805,0.7441,7.8232c0.2989,1.0938,0.2842,1.9668,0.461,3.1699
			c0.2734,1.8526,1.3418,2.9727,1.4629,4.8643c0.0918,1.3906-0.793,3.0029-0.376,4.292c0.3105,0.959,0.1338,3.8662,0.7373,3.8418
			c0,0,6.7168-0.292,8.3145-0.3613c4.6992-0.2032,9.3984-0.4063,14.0976-0.6104c0.8809-0.0381,1.7598-0.0742,2.6426-0.1142
			c0.1523,0.3418,0.1514,0.6308,1.8467,0.6211c1.5263-0.0069,4.1631-0.7803,5.8427-0.9336
			c0.1075-0.0098,0.2266-0.0215,0.3467-0.0342c1.125-0.0498,2.251-0.0977,3.376-0.1455c0.7734,0.1103,0.6445,0.5166,1.5312,0.6054
			c0.1387-0.4238,0.5411-0.6308,1.0684-0.7187c0.3379-0.0147,0.6758-0.0283,1.0137-0.043c0.416,0.0196,0.8535,0.0703,1.2871,0.1367
			c1.5859,0.2403,1.1406,0.2871,2.5098,0.208c1.4511-0.0839,1.746-0.373,3.6376-0.291c1.5489,0.0655,3.2881,0.6192,4.7002,0.5537
			c0.92-0.0429,2.2393-0.5205,3.3741-0.6064c1.1591-0.0869,1.0615,0.2051,2.7422-0.0957c2.6767-0.4795,5.1123-1.2647,6.6572,0.1074
			c2.4101-1.917,4.1523-0.9922,6.7871,0.0195c-0.1289-0.8505,0.7461-0.8828,1.9219-0.872c1.416,0.0117,0.6289,0.5332,2.5136,0.2119
			c0.7793-0.1328,0.5879-0.5772,1.8526-0.5527c0.706,0.0136,0.8008,0.6015,1.2431,0.6171c0.9375,0.0332,1.6875-0.2724,2.6768-0.331
			c3.8125-0.2236,4.2314,0.3027,7.751-1.0029c2.7636-1.0225,3.1992-0.0147,5.8916,0.3525
			c3.5478,0.4814,8.2968-0.0029,11.5381,0.8184c1.5898,0.4033,1.3056,0.5947,3.5488,0.5127
			c1.3965-0.0528,2.6719,0.0234,3.9404,0.0156c1.1494-0.0078,2.3516-0.3184,3.3252-0.3047
			c1.3731,0.0156,3.0156,0.7441,4.0274,1.0586c2.0332-0.7442,1.4062-1.0381,3.3515-0.4512c1.6797,0.5098,0.6084,0.711,2.7969,0.376
			c1.5566-0.2373,2.4785-0.8574,4.3867-0.6377c1.0703,0.1211,1.2852,0.6894,2.8604,0.5342
			c-0.1162-1.6905,3.081-1.4121,5.6709-1.6592c2.332-0.2227,4.2734-0.7061,6.7265-0.7773c3.2207-0.0918,6.4336,0.2216,9.5957,0.3339
			c2.3213,0.0811,4.1407-0.083,6.4297-0.1728c4.7344-0.1846,9.1289,2.2861,13.4141,1.2021
			c4.0039-1.0097,4.7402-0.4365,6.8174,1.1309c0.7002-0.3916,1.9814-0.7158,3.2041-0.6211
			c1.0312,0.0801,1.2343,0.6064,1.8398,0.6807c1.1328,0.1357,0.916-0.085,2.1074-0.128c1.5567-0.0566,3.584-0.1142,4.9532-0.0205
			c0.5039,0.0352,0.9843,0.0645,1.9453,0.2139c0.7793,0.124,1.1894,0.3389,2.0146,0.3857c0.7354-1.3154,2.585-1.0068,4.5713-1.372
			c1.8145-0.334,3.1309-1.001,5.0332-1.1983c1.9492-0.2031,2.3125-0.1894,4.0742-0.6513c1.6553-0.4346,1.9629-0.4864,3.8887-0.7032
			c3.1641-0.3554,5.6982-1.4199,8.6582-2.0039c3.7051-0.7275,4.3066,0.3614,7.4883,0.4014
			c1.6133,0.0195,2.5137-0.1738,3.9258,0.1172c0.7705,0.1611,0.9365,0.5156,1.6953,0.6162
			c0.4746,0.0615,1.2109-0.1387,1.7148-0.1035c3.1621,0.2129,3.8965,1.0176,6.3711,1.5927
			c2.3731,0.5538,5.6651,0.9815,8.3535,1.1973c5.8164,0.4649,12.25-1.1348,18.1133-0.8349
			c1.8203,0.0927,3.1348,0.6162,4.7656,0.8857c1.4112,0.2324,2.6211,0.2226,4.1875,0.2783
			c1.5996,0.0576,3.2237,0.2686,4.8653,0.1856c0.2578-0.0127,3.791-0.4991,3.3867-0.6368c0.6553,0.2256,1.1465,0.5176,1.4512,0.8594
			c0.7382-0.5713,2.4921-0.5771,3.7832-0.8584c1.1132-0.2441,0.1025-0.5517,1.6289-0.5322
			c0.6748,0.0078,1.4453,0.5029,2.1582,0.5723c0.791-1.0508,1.5254,0.0498,2.3867-0.1045c0.7226-0.1289,1.0918-0.6739,1.6211-0.7354
			c1.6504-0.1914,2.5488,0.5557,3.5879,0.9004c2.3652-1.2197,5.6562-0.1289,8.7226-0.4434c2.7305-0.2793,6.0703-0.3505,8.7842-0.371
			c3.0225-0.0235,4.9356,0.9277,7.6572,1.2851c1.9327,0.252,2.5196,0.5449,4.128,1.0186c1.6914,0.497,2.5107,0.3984,4.3955,0.5107
			c1.6963,0.0996,3.3789,0.3555,4.959,0.5781c2.5195,0.3526,2.248-0.1933,4.582-0.5097c2.2432-0.3067,3.2881,0.4755,5.0976,0.5273
			c2.6963,0.0762,2.1836-0.6084,3.3331-1.3672c1.2236-0.8076,2.9462-0.9697,5.0761-0.9443
			c1.6094,0.0166,3.5313-0.0274,5.1768,0.0224c2.8262,0.086,4.5459,1.0918,7.7773,1.1133c3.4356,0.0215,6.9815-0.2197,9.9746-0.9814
			c1.3985-0.3574,2.5098-0.3565,4.045-0.5791c1.0254-0.1475,1.8759-0.4649,2.7089-0.7881c3.1758,1.5166,6.3282,3.1416,9.9239,2.8623
			c1.3515-0.1045,2.707-0.21,4.0605-0.3145c1.1465-0.0898,3.7031-0.2968,3.7031-0.2968c0.1788-1.71,0.3477-3.4287,0.5059-5.1524
			c0.168-1.8203-0.2852-5.2109,0.3359-6.4775c0.42-0.8623,0.9942,0.0557,0.959-1.9131
			C427.2871,315.1119,426.586,313.0738,426.4356,311.7593z"/>
		<path fill="#FFFFFF" d="M416.8145,21.1997c-34.5596,1.4971-77.7852-2.7158-140.5567,0
			c-72.6699,3.1446-181.3222-1.4619-253.9931,1.6817c-9.0947,0.3935,10.289,252.4521,1.1943,252.8457
			c-2.0117,0.0859,2.4219,18.8818,0.4121,18.9687c-0.3476,0.0147-0.4502,11.4278-0.4004,12.9356
			c0.1446,4.2949,0.2871,8.5889,0.4317,12.8808c0.0381,1.1553,0.082,2.3096,0.125,3.462c0.0312,0.7861,2.2031,0.6406,3.75,0.7754
			c6.7793,0.5918,12.6054,0.2822,19.541,0.2441c3.293-0.0176,6.6992,1.4736,9.9014,0.6582c3.9267-0.999,7.4306-0.7871,11.663-0.7656
			c3.9864,0.0195,7.5782-0.7071,11.4864-1.0176c3.3857-0.2695,6.3652,0.5879,9.8535,0.3672
			c3.7197-0.2373,7.0547-0.2315,10.7207-0.0586c3.8135,0.1797,7.7627-0.6094,11.293-0.4297
			c6.5058,0.3262,14.3164,1.7734,21.0732,0.373c7.1924-1.4892,15.6943-0.0468,23.0127-1.0292
			c3.7363-0.5,7.207,0.0488,10.9746-0.1075c4.6328-0.1933,9.3164-0.2949,13.8281,0.0557c3.9746,0.3105,5.6192,1.668,9.416,1.1045
			c4.8692-0.7236,9.5372,0.9785,14.4122,0.9873c3.9472,0.0078,8.0625-0.2227,11.9834,0.0195
			c3.0224,0.1856,6.0615-1.8076,9.3837-1.9941c3.9698-0.2227,9.7227-3.3281,13.8047-3.3076
			c5.1348,0.0273,7.375,2.2461,12.4688,1.833c3.957-0.3203,6.7363,0.1816,10.3398,0.6025c3.1133,0.3613,6.8428-0.2685,9.7324,0.3858
			c3.0909,0.6982,3.9219,0.7959,7.6661,0.373c4.8652-0.5488,8.1406-0.5254,12.4863,0.3174c3.6641,0.7119,5.3086-0.6133,8.8711-0.75
			c4.0928-0.1582,8.166-0.4024,12.2598-0.5791c4.2197-0.1817,7.4433,0.1963,11.3623,0.6494
			c4.2255,0.4873,8.8388-0.1621,13.2373-0.0606c3.8906,0.0899,7.7187,0.0411,11.6406-0.0449
			c4.1367-0.0898,5.5683,3.5117,9.3574,3.1201c3.6191-0.374,6.9199,0.6114,10.1699-0.4404
			c3.5332-1.1396,7.3692-2.4219,10.1172-2.0488c2.6113,0.3564,1.0508-2.0742,3.6699-1.7471
			c2.6387,0.3281,5.9864,1.4473,8.6582,1.4893c3.4317,0.0517,3.918,1.3134,7.6075,0.2558
			c2.9824-0.8535,7.7011,0.6768,10.0214-0.7324c2.0215-1.2295,2.3291-1.4209,5.502-0.9404c1.3701,0.207,5.4043-0.1758,6.6738-0.5713
			c0,0,0.2422-4.5244,0.2188-5.2422c-0.2451-7.2978-0.4883-14.5947-0.7324-21.8936
			C421.2705,288.3902,416.9961,26.6363,416.8145,21.1997z"/>
	</g>
</g>
</svg>
