<svg xmlns="http://www.w3.org/2000/svg" width="378" height="104" viewBox="0 0 378 104">
    <g fill="none" fill-rule="evenodd">
        <path fill="#D04244" d="M108.353 0l-3.208 10.825 10.8 3.218 3.208-10.824L108.359 0zM144.784 36.277l-3.208 10.826-10.802-3.22 3.208-10.824zM110.749 95.93l-1.973 6.652-6.634-1.978 1.971-6.65zM76.438 5.832l-1.971 6.652-6.634-1.978 1.97-6.652z"/>
        <path fill="#ECB223" d="M142.255 57.725l-1.973 6.652-6.632-1.978 1.97-6.65z"/>
        <path fill="#D04244" d="M72.856 91.925l-1.973 6.65-6.633-1.978 1.97-6.65z"/>
        <path fill="#2B69B2" d="M82.034 100.413l-.944 3.185-3.175-.946.941-3.185zM132.702 70.545l-1.19 4.01-4.002-1.193 1.19-4.01z"/>
        <path fill="#ECB223" d="M50.51 16.849l-1.188 4.01-4.001-1.192 1.188-4.01zM59.61 91.796l-1.188 4.011-4.003-1.193 1.19-4.009z"/>
        <path fill="#7AC043" d="M49.922 82.78l-1.19 4.01-4.001-1.191 1.19-4.011zM43.825 97.95l-.7 2.363-2.357-.704.702-2.363z"/>
        <path fill="#2B69B2" d="M95.818 98.503l-.7 2.363-2.357-.703.702-2.362zM55.246 11.832l-.702 2.364-2.357-.704.701-2.363z"/>
        <path fill="#995897" d="M38.446 99.535l-.7 2.363-2.357-.704.7-2.363zM14.936 39.887L.147 45.21l9.628 21.004 9.488-2.476z"/>
        <path fill="#2B69B2" d="M32.465 30.914l-16.36 1.996 6.74 37.153 12.984-3.077z"/>
        <path fill="#ECB223" d="M132.515 56.098l-4.809-5.572-.763 11.192zM99.599 17.966l-8.34-9.662-8.65 8.063zM77.326 86.094l12.9 12.642 11.478-11.575zM59.114 38.276L43.438 52.89l15.04 14.739z"/>
        <path fill="#7AC043" d="M58.409 70.92L41.763 54.61l-1.796-1.762 1.839-1.719 17.38-16.201.197-9.118-24.966.217 4.742 50.84 19.184-2.876z"/>
        <path fill="#C83636" d="M114.56 76.215l-45.03-1.972 1.03-47.744 47.093 4.429-3.092 45.287zM61.974 16.84l-1.428 66.113 62.36 2.733 4.278-62.714-65.21-6.132z"/>
        <path fill="#D04244" d="M84.044 48.357a2.939 2.939 0 1 1 5.857.516 2.94 2.94 0 0 1-3.188 2.677 2.945 2.945 0 0 1-2.669-3.193M101.994 49.942a2.94 2.94 0 0 1 3.186-2.677 2.947 2.947 0 0 1 2.67 3.195 2.94 2.94 0 1 1-5.856-.518M94.102 70.394c4.96.439 9.329-3.236 9.766-8.204l-17.95-1.586c-.437 4.97 3.227 9.352 8.184 9.79"/>
        <g>
            <path fill="#C83636" d="M169.218 45.04l2.223-.02 7.18 10.586L185.62 44.9l2.226-.02.166 19.508-2.197.019-.134-15.802-7 10.512h-.111l-7.179-10.361.136 15.775-2.142.016zM192.33 58.887l-.077-8.946 2.142-.019.071 8.416c.025 2.678 1.483 4.335 4.012 4.315 2.449-.022 4.296-1.852 4.272-4.554l-.072-8.25 2.114-.016.124 14.409-2.114.018-.02-2.51c-.96 1.57-2.423 2.836-4.898 2.859-3.477.028-5.523-2.292-5.554-5.722M207.958 62.376l1.072-1.542c1.567 1.156 3.296 1.81 4.99 1.797 1.725-.017 2.968-.92 2.958-2.313v-.055c-.014-1.45-1.715-1.992-3.61-2.506-2.257-.62-4.767-1.379-4.787-4.028l-.002-.055c-.02-2.48 2.022-4.143 4.855-4.168 1.754-.014 3.707.583 5.185 1.544l-.958 1.625c-1.342-.852-2.876-1.368-4.265-1.356-1.695.014-2.77.916-2.763 2.115v.055c.012 1.366 1.796 1.878 3.72 2.449 2.23.648 4.628 1.493 4.65 4.084l.003.056c.022 2.732-2.215 4.339-5.08 4.363-2.058.017-4.342-.768-5.968-2.065M222.48 43.744l2.14-.02.175 20.347-2.14.018zM229.285 49.62l2.142-.018.122 14.41-2.14.016-.124-14.407zm-.187-5.515l2.447-.023.02 2.37-2.444.02-.023-2.367zM235.847 49.565l2.14-.02.02 2.426c.934-1.43 2.203-2.75 4.62-2.773 2.335-.019 3.848 1.221 4.64 2.832 1.013-1.599 2.532-2.893 5.034-2.916 3.308-.026 5.358 2.186 5.387 5.753l.077 8.917-2.14.019-.071-8.418c-.024-2.786-1.428-4.334-3.763-4.315-2.17.02-3.96 1.651-3.938 4.492l.07 8.308-2.113.016-.073-8.47c-.02-2.705-1.454-4.279-3.733-4.26-2.28.02-3.987 1.93-3.964 4.577l.07 8.223-2.14.016-.123-14.407z"/>
            <path fill="#2B69B2" d="M263.505 44.616l4.28-.037.075 8.528 7.821-8.595 5.171-.045L273 52.814l8.381 11.158-5.142.045-6.105-8.252-2.231 2.359.053 5.965-4.284.034zM283.034 49.02l4.225-.04.13 14.942-4.229.035-.126-14.938zm-.159-5.407l4.45-.038.032 3.762-4.449.039-.033-3.763zM301.558 56.356l-.002-.055c-.02-2.482-1.674-4.112-3.649-4.095-1.973.018-3.627 1.647-3.605 4.158v.055c.019 2.48 1.705 4.11 3.676 4.092 1.975-.016 3.6-1.674 3.58-4.155m-11.483.1v-.058c-.042-4.988 3.188-7.747 6.717-7.777 2.252-.02 3.65.999 4.66 2.19l-.06-7.358 4.225-.038.174 20.347-4.225.035-.02-2.146c-1.015 1.403-2.425 2.447-4.62 2.466-3.476.028-6.808-2.674-6.85-7.662M307.834 61.764l1.782-2.802c1.623 1.155 3.323 1.754 4.713 1.742 1.222-.008 1.776-.459 1.77-1.13l-.003-.055c-.004-.92-1.454-1.213-3.098-1.7-2.09-.598-4.46-1.55-4.487-4.45v-.057c-.026-3.037 2.406-4.758 5.407-4.782 1.892-.018 3.954.606 5.576 1.678l-1.587 2.939c-1.481-.85-2.96-1.367-4.044-1.356-1.03.008-1.552.458-1.548 1.044v.055c.008.838 1.428 1.213 3.045 1.758 2.093.679 4.52 1.661 4.544 4.392v.055c.029 3.318-2.434 4.843-5.659 4.872-2.085.018-4.424-.659-6.411-2.203"/>
            <path fill="#C83636" d="M364.078 62.866l-5.116.042-7.502-15.793-1.53.012-.033-3.622 10.259-.087.004 3.621-1.501.014 2.416 6.222c.456 1.362.83 2.584.891 3.365h.138c.051-.783.428-2.15.973-3.548l2.477-6.098-1.446.013-.059-3.624 7.895-.07.032 3.624-1.363.012-6.535 15.917zm-20.607-3.528l2.31-.02.032 3.705-10.342.09-.033-3.706 2.279-.02-.104-12.097-2.392.022.032 3.567-4.086.037-.063-7.248 18.655-.16.061 7.247-4.087.032-.03-3.566-2.335.02.103 12.097zm8.501-31.294c-14.182.122-25.58 11.748-25.46 25.963.125 14.22 11.72 25.643 25.904 25.521 14.18-.122 25.58-11.746 25.455-25.965-.122-14.216-11.716-25.643-25.899-25.52z"/>
        </g>
    </g>
</svg>
