<svg xmlns="http://www.w3.org/2000/svg" width="39" height="38" viewBox="0 0 39 38">
    <g fill="#40B1D8" fill-rule="evenodd">
        <path d="M30.357 3.29a.58.58 0 0 1-.385.723l-1.555.473a.578.578 0 0 1-.72-.388l-.472-1.56a.58.58 0 0 1 .387-.723l1.554-.473a.578.578 0 0 1 .72.388l.471 1.56zm1.455 4.824a.58.58 0 0 1-.385.723l-1.555.473a.578.578 0 0 1-.72-.388l-.47-1.56a.58.58 0 0 1 .385-.724l1.554-.472a.578.578 0 0 1 .72.387l.471 1.56zm1.455 4.823a.58.58 0 0 1-.385.724l-1.555.472a.577.577 0 0 1-.72-.387l-.47-1.56a.58.58 0 0 1 .385-.724l1.554-.472a.577.577 0 0 1 .72.387l.471 1.56zm1.456 4.824a.581.581 0 0 1-.386.724l-1.555.472a.577.577 0 0 1-.72-.387l-.47-1.56a.58.58 0 0 1 .385-.724l1.554-.472a.577.577 0 0 1 .721.386l.47 1.56zm1.455 4.824a.58.58 0 0 1-.386.723l-1.555.473a.578.578 0 0 1-.72-.387l-.47-1.56a.581.581 0 0 1 .385-.725l1.555-.472a.578.578 0 0 1 .72.387l.47 1.56zm1.455 4.823a.58.58 0 0 1-.386.724l-1.555.472a.577.577 0 0 1-.72-.387l-.47-1.56a.58.58 0 0 1 .385-.724l1.555-.472a.578.578 0 0 1 .72.387l.47 1.56zm-5.959-6.405a2.683 2.683 0 0 1-1.782 3.343l-16.084 4.89a2.668 2.668 0 0 1-3.33-1.79l-3.152-10.45a2.683 2.683 0 0 1 1.782-3.342l16.084-4.89a2.67 2.67 0 0 1 3.33 1.79l3.152 10.449zM4.478 11.157a.58.58 0 0 1-.385.723l-1.555.473a.578.578 0 0 1-.72-.387l-.471-1.56a.582.582 0 0 1 .385-.724l1.555-.473a.577.577 0 0 1 .72.387l.471 1.561zm1.456 4.824a.581.581 0 0 1-.386.723l-1.555.473a.577.577 0 0 1-.72-.387l-.471-1.561a.581.581 0 0 1 .386-.723l1.554-.473a.578.578 0 0 1 .721.387l.47 1.561zm1.455 4.823a.581.581 0 0 1-.386.724l-1.555.473a.577.577 0 0 1-.72-.388l-.471-1.56a.58.58 0 0 1 .385-.724l1.555-.472a.577.577 0 0 1 .721.387l.47 1.56zm1.455 4.824a.58.58 0 0 1-.386.723l-1.555.473a.579.579 0 0 1-.72-.387l-.471-1.56a.582.582 0 0 1 .385-.724l1.555-.473a.578.578 0 0 1 .721.387l.47 1.561zm1.455 4.824a.58.58 0 0 1-.386.723l-1.555.473a.578.578 0 0 1-.72-.387l-.471-1.56a.581.581 0 0 1 .386-.724l1.554-.473a.578.578 0 0 1 .721.387l.47 1.561zm1.455 4.824a.58.58 0 0 1-.386.723l-1.554.473a.577.577 0 0 1-.721-.388l-.471-1.56a.58.58 0 0 1 .385-.724l1.555-.472a.578.578 0 0 1 .721.387l.47 1.56zM25.867 1.752l.548 1.816a2.683 2.683 0 0 1-1.782 3.343L8.55 11.801a2.669 2.669 0 0 1-3.33-1.79l-.548-1.815a.473.473 0 0 0-.592-.318L.337 9.015a.477.477 0 0 0-.317.594l8.463 28.053a.474.474 0 0 0 .591.317l3.743-1.138a.476.476 0 0 0 .316-.593l-.547-1.816a2.683 2.683 0 0 1 1.78-3.343l16.085-4.89a2.67 2.67 0 0 1 3.33 1.79l.548 1.815a.474.474 0 0 0 .592.318l3.742-1.138a.477.477 0 0 0 .317-.593L30.517.338a.474.474 0 0 0-.591-.318L26.183 1.16a.477.477 0 0 0-.316.593z"/>
        <path d="M13.037 15.135l2.977 10.243c.185.639.954.835 1.396.355l7.354-7.964c.457-.495.216-1.328-.428-1.47l-10.33-2.28c-.62-.137-1.154.478-.969 1.116"/>
    </g>
</svg>
