<svg xmlns="http://www.w3.org/2000/svg" xmlns:xlink="http://www.w3.org/1999/xlink" width="64" height="64" viewBox="0 0 64 64">
    <defs>
        <circle id="b" cx="25" cy="25" r="25"/>
        <filter id="a" width="150%" height="150%" x="-25%" y="-17%" filterUnits="objectBoundingBox">
            <feOffset dy="4" in="SourceAlpha" result="shadowOffsetOuter1"/>
            <feGaussianBlur in="shadowOffsetOuter1" result="shadowBlurOuter1" stdDeviation="3.5"/>
            <feColorMatrix in="shadowBlurOuter1" values="0 0 0 0 0 0 0 0 0 0 0 0 0 0 0 0 0 0 0.3 0"/>
        </filter>
        <filter id="c" width="134%" height="134%" x="-17%" y="-9%" filterUnits="objectBoundingBox">
            <feOffset dy="-3" in="SourceAlpha" result="shadowOffsetInner1"/>
            <feComposite in="shadowOffsetInner1" in2="SourceAlpha" k2="-1" k3="1" operator="arithmetic" result="shadowInnerInner1"/>
            <feColorMatrix in="shadowInnerInner1" values="0 0 0 0 0.11954338 0 0 0 0 0.51851185 0 0 0 0 0.655001063 0 0 0 1 0"/>
        </filter>
    </defs>
    <g fill="none" fill-rule="evenodd">
        <g transform="translate(7 3)">
            <use fill="#000" filter="url(#a)" xlink:href="#b"/>
            <use fill="#4CBEE5" xlink:href="#b"/>
            <use fill="#000" filter="url(#c)" xlink:href="#b"/>
        </g>
        <path fill="#FFF" d="M36.37 43a3.924 3.924 0 0 1-2.801-1.176L21.494 29.59a4.043 4.043 0 0 1-1.16-2.84c0-1.064.417-2.085 1.16-2.838L33.57 11.676a3.927 3.927 0 0 1 5.604 0 4.053 4.053 0 0 1 0 5.678L29.9 26.75l9.273 9.396a4.054 4.054 0 0 1 0 5.678A3.924 3.924 0 0 1 36.37 43"/>
    </g>
</svg>
