<svg xmlns="http://www.w3.org/2000/svg" xmlns:xlink="http://www.w3.org/1999/xlink" width="192" height="376" viewBox="0 0 192 376">
    <defs>
        <path id="a" d="M0 .479v362.949h191.594V.478z"/>
    </defs>
    <g fill="none" fill-rule="evenodd">
        <g transform="rotate(-180 96 188)">
            <mask id="b" fill="#fff">
                <use xlink:href="#a"/>
            </mask>
            <path fill="#D9D7D5" d="M166.705 336.751a78.81 78.81 0 0 0 3.647-3.188l1.805 1.765a82.699 82.699 0 0 1-3.852 3.371l-1.6-1.948zm10.458-10.515l1.973 1.569a66.155 66.155 0 0 1-3.353 3.891l-1.847-1.716a63.828 63.828 0 0 0 3.227-3.744zm-18.488 16.377a95.35 95.35 0 0 0 4.1-2.823l1.484 2.037a98.297 98.297 0 0 1-4.208 2.9l-1.376-2.114zm23.956-24.571l2.212 1.21a58.927 58.927 0 0 1-2.672 4.404l-2.096-1.401a56.265 56.265 0 0 0 2.556-4.213zm-32.56 29.61c1.486-.783 2.954-1.599 4.362-2.422l1.274 2.175a117.202 117.202 0 0 1-4.46 2.478l-1.175-2.23zm-9.016 4.305c1.53-.66 3.061-1.355 4.553-2.065l1.084 2.276c-1.52.724-3.08 1.432-4.639 2.103l-.998-2.314zm45.468-42.94l2.4.776a54.89 54.89 0 0 1-1.818 4.827l-2.315-1c.647-1.5 1.23-3.048 1.733-4.603zm-54.789 46.58c1.575-.555 3.154-1.14 4.695-1.74l.915 2.348a154.08 154.08 0 0 1-4.772 1.77l-.838-2.378zm56.91-56.174l2.5.312a55.826 55.826 0 0 1-.873 5.08l-2.462-.543c.349-1.583.63-3.216.836-4.85zm-66.455 59.19c1.477-.413 3.085-.888 4.797-1.429l.76 2.403c-1.614.511-3.255 1-4.877 1.455l-.68-2.428zm-9.712 2.331c.017-.002 1.843-.328 4.87-1.063l.594 2.45c-3.113.755-4.948 1.082-5.025 1.097l-.439-2.484zm76.53-71.364l2.518-.119c.08 1.727.09 3.456.03 5.143l-2.52-.092a60.008 60.008 0 0 0-.028-4.932zm-1.2-9.813l2.475-.48c.328 1.694.6 3.395.806 5.06l-2.503.31a72.605 72.605 0 0 0-.778-4.89zm-2.485-9.607l2.4-.77a89.877 89.877 0 0 1 1.426 4.908l-2.44.632a89.111 89.111 0 0 0-1.386-4.77zm-3.507-9.323l2.32-.985.452 1.073c.515 1.23 1 2.447 1.453 3.649l-2.358.891a110.7 110.7 0 0 0-1.42-3.568l-.447-1.06zm-4.162-9.106l2.263-1.112c.731 1.491 1.457 3.02 2.173 4.589l-2.293 1.047a178.43 178.43 0 0 0-2.143-4.524zm-4.69-8.833l2.186-1.255c.832 1.45 1.66 2.948 2.456 4.451l-2.227 1.182a148.31 148.31 0 0 0-2.415-4.378zm-5.29-8.468l2.085-1.418c.94 1.381 1.874 2.816 2.779 4.266l-2.139 1.334a126.284 126.284 0 0 0-2.725-4.182zm-5.955-7.994l1.951-1.597a114.224 114.224 0 0 1 3.137 4.02l-2.024 1.507a108.395 108.395 0 0 0-3.064-3.93zm-4.889-9.165a99.231 99.231 0 0 1 3.515 3.697l-1.872 1.692a93.562 93.562 0 0 0-3.426-3.606l1.783-1.783zm-7.6-6.811a92.462 92.462 0 0 1 3.895 3.302l-1.684 1.877a88.756 88.756 0 0 0-3.787-3.21l1.575-1.969zm-8.316-5.923a91.407 91.407 0 0 1 4.242 2.845l-1.462 2.053a87.846 87.846 0 0 0-4.125-2.765l1.345-2.133zm-8.92-4.96a97.568 97.568 0 0 1 4.527 2.36l-1.226 2.203a95.686 95.686 0 0 0-4.407-2.297l1.107-2.265zm-9.376-4.018c1.615.605 3.21 1.244 4.738 1.897l-.993 2.318a111.069 111.069 0 0 0-4.629-1.854l.884-2.36zm-9.67-3.182c1.657.478 3.292.982 4.86 1.496l-.785 2.397c-1.54-.506-3.146-1-4.773-1.47l.698-2.423zm-9.829-2.518c1.648.376 3.293.772 4.929 1.19l-.624 2.442a203.15 203.15 0 0 0-4.867-1.174l.562-2.458zm-9.91-2.068c1.659.32 3.312.648 4.96.99l-.512 2.47c-1.636-.34-3.279-.667-4.922-.984l.475-2.476zm-9.926-1.824c1.656.296 3.31.593 4.965.896l-.455 2.478c-1.649-.3-3.3-.597-4.954-.892l.444-2.482zm15.623-23.64c.93-.673 1.833-1.392 2.645-2.176.344-.32.671-.643.989-.973l1.818 1.744c-.362.38-.743.744-1.131 1.114a29.503 29.503 0 0 1-2.845 2.335l-1.476-2.043zm-25.53 21.845c1.651.309 3.3.61 4.949.906l-.448 2.481c-1.652-.298-3.31-.6-4.965-.909l.464-2.478zm34.114-33.014l2.405.758c-.515 1.636-1.28 3.266-2.27 4.845l-2.136-1.342c.878-1.396 1.55-2.83 2-4.261zm-17.21 15.461a31.161 31.161 0 0 0 4.492-1.8l1.12 2.257a33.52 33.52 0 0 1-4.857 1.948l-.754-2.405zm-9.563 1.51a35.066 35.066 0 0 0 4.841-.412l.39 2.49a37.5 37.5 0 0 1-5.192.442l-.039-2.52zm26.487-26.089l2.394-.792c.58 1.754.932 3.427 1.037 4.97l.015.288-2.515.13-.016-.248c-.091-1.33-.398-2.793-.915-4.348zm-43.677 40.166c1.638.354 3.275.691 4.913 1.016l-.49 2.473a276.313 276.313 0 0 1-4.954-1.026l.531-2.463zm7.497-15.134c1.614.37 3.236.647 4.821.822l-.277 2.507a45.531 45.531 0 0 1-5.109-.873l.565-2.456zm-17.232 12.81c1.614.428 3.232.833 4.85 1.22l-.584 2.45c-1.64-.389-3.278-.8-4.913-1.233l.647-2.437zm48.972-46.47l2.083-1.42a45.28 45.28 0 0 1 2.677 4.442l-2.234 1.168a42.561 42.561 0 0 0-2.526-4.19zm-41.04 30.514a54.824 54.824 0 0 0 4.581 1.8l-.811 2.387a57.717 57.717 0 0 1-4.796-1.883l1.026-2.304zm-17.503 13.09a146.48 146.48 0 0 0 4.762 1.51l-.724 2.417a149.642 149.642 0 0 1-4.844-1.538l.806-2.389zm54.093-52.973c.315.325.624.653.93.98a63.162 63.162 0 0 1 2.501 2.849l-1.943 1.605a62.104 62.104 0 0 0-3.298-3.677l1.81-1.757zm-45.272 35.17a69.831 69.831 0 0 0 4.258 2.522l-1.206 2.215a73.747 73.747 0 0 1-4.412-2.612l1.36-2.124zm-18.087 14.185a84.455 84.455 0 0 0 4.576 1.93l-.913 2.35a87.347 87.347 0 0 1-4.712-1.988l1.049-2.292zm55.7-56.179a74.217 74.217 0 0 1 3.95 3.276l-1.677 1.883a71.125 71.125 0 0 0-3.814-3.162l1.54-1.997zm-45.632 36.149a91.89 91.89 0 0 0 3.928 3.044l-1.487 2.034a93.753 93.753 0 0 1-4.037-3.128l1.596-1.95zM26.248 168.68a67.364 67.364 0 0 0 4.265 2.51l-1.198 2.216a69.033 69.033 0 0 1-4.425-2.602l1.358-2.124zm55.88-57.155a74.533 74.533 0 0 1 4.36 2.703l-1.401 2.095a72.583 72.583 0 0 0-4.212-2.61l1.253-2.188zm-44.497 35.17a113.94 113.94 0 0 0 3.621 3.423l-1.69 1.87a114.146 114.146 0 0 1-3.702-3.499l1.77-1.793zm-19.187 15.987a51.798 51.798 0 0 0 3.762 3.17l-1.531 2.001a54.307 54.307 0 0 1-3.947-3.324l1.716-1.847zm54.455-55.622a71.537 71.537 0 0 1 4.694 2.072l-1.098 2.268a70.03 70.03 0 0 0-4.53-2l.934-2.34zM28.867 141.12l1.877-1.683a191.653 191.653 0 0 0 3.395 3.68l-1.832 1.734c-.37-.39-.737-.782-1.101-1.174-.793-.85-1.573-1.702-2.339-2.557zM9.966 156.698l2.09-1.41a40.337 40.337 0 0 0 2.977 3.871l-1.904 1.653a43.312 43.312 0 0 1-3.163-4.114zm53.149-52.736c1.653.39 3.318.85 4.95 1.366l-.76 2.404a67.1 67.1 0 0 0-4.769-1.316l.579-2.454zm-40.803 29.4l1.975-1.565a156.806 156.806 0 0 0 3.169 3.869l-1.925 1.628a154.881 154.881 0 0 1-3.22-3.932zm-16.932 14l2.4-.772a32.728 32.728 0 0 0 1.826 4.493l-2.26 1.117a35.499 35.499 0 0 1-1.966-4.837zm47.587-44.978c1.703.129 3.42.328 5.108.592l-.39 2.49a62.304 62.304 0 0 0-4.906-.567l.188-2.515zm-10.271.04a64.47 64.47 0 0 1 5.135-.225l.009 2.521c-1.64.007-3.3.079-4.933.217l-.211-2.513zM3.808 137.04l2.52.033c-.021 1.6.092 3.22.336 4.815l-2.491.382a31.827 31.827 0 0 1-.365-5.23zm12.475-11.87l2.084-1.416c.918 1.35 1.888 2.72 2.885 4.075l-2.03 1.493a133.778 133.778 0 0 1-2.939-4.151zm16.264-21.042a51.616 51.616 0 0 1 4.406-.963l.649-.11.398 2.49-.617.103a50.51 50.51 0 0 0-4.192.917l-.644-2.437zm-26.832 22.63l2.367.873a28.613 28.613 0 0 0-1.277 4.647l-2.48-.46c.32-1.714.786-3.417 1.39-5.06zm17.182-18.9a44.303 44.303 0 0 1 4.725-2.14l.905 2.354a42.067 42.067 0 0 0-4.457 2.015l-1.173-2.23zm-8.49 5.986l.01-.012a37.942 37.942 0 0 1 4.04-3.268l1.45 2.062a35.437 35.437 0 0 0-3.77 3.052l-1.73-1.834zm-3.485 2.665l2.2-1.23c.797 1.428 1.648 2.872 2.53 4.294l-2.145 1.327c-.291-.471-.58-.945-.864-1.42a31.076 31.076 0 0 0-2.527 3.77l-2.193-1.244c.85-1.5 1.838-2.957 2.934-4.333l1.35 1.077c-.44-.748-.87-1.497-1.285-2.24zm-4.514-9.153l2.318-.992a92.321 92.321 0 0 0 2.081 4.512l-2.26 1.116a96.397 96.397 0 0 1-2.14-4.636zM2.95 97.739l2.421-.704a78.048 78.048 0 0 0 1.535 4.712l-2.372.855a82.028 82.028 0 0 1-1.584-4.863zM.758 87.733l2.496-.366c.236 1.61.536 3.25.892 4.87l-2.462.542a73.405 73.405 0 0 1-.926-5.046zM0 77.52H2.52c0 1.631.064 3.293.185 4.935l-2.513.188A70.177 70.177 0 0 1 0 77.52zm.74-10.215l2.495.363a68.417 68.417 0 0 0-.536 4.913l-2.515-.182a70.92 70.92 0 0 1 .556-5.094zm2.166-10.001L5.33 58a75.022 75.022 0 0 0-1.213 4.8l-2.464-.536c.36-1.652.782-3.321 1.254-4.961zm3.43-9.624l2.322.984a86.429 86.429 0 0 0-1.807 4.621l-2.374-.848a87.43 87.43 0 0 1 1.86-4.757zm4.483-9.162l2.207 1.222a102.08 102.08 0 0 0-2.302 4.408l-2.263-1.11c.736-1.502 1.53-3.023 2.358-4.52zm5.33-8.679l2.09 1.411a117.236 117.236 0 0 0-2.702 4.19l-2.147-1.321c.871-1.417 1.8-2.856 2.759-4.28zm6.003-8.205l1.98 1.56a144.683 144.683 0 0 0-3.021 3.976l-2.036-1.489a149.45 149.45 0 0 1 3.077-4.047zm6.535-7.772l1.88 1.68a166.028 166.028 0 0 0-3.278 3.778l-1.929-1.625a167.74 167.74 0 0 1 3.327-3.833zm6.964-7.375l1.788 1.777a197.222 197.222 0 0 0-3.484 3.596l-1.834-1.73c1.146-1.212 2.321-2.426 3.53-3.643zM41.697.63l.163-.151 1.717 1.845c-.867.807-1.726 1.617-2.565 2.425L39.265 2.93a213.97 213.97 0 0 1 2.432-2.3z" mask="url(#b)"/>
        </g>
        <path fill="#FFA300" d="M68.095 14.275c-.978-6.012 5.78-11.07 11.61-12.08 5.829-1.01 11.17 1.954 12.15 7.965.98 6.013-3.13 10.614-8.96 11.622-5.831 1.01-13.82-1.495-14.8-7.507"/>
        <path fill="#D9D7D5" d="M68.34 5.15h-.002c-3.144 2.923-4.55 6.475-3.958 9.998.605 3.597 3.175 6.53 7.238 8.256 3.278 1.395 7.345 1.874 10.88 1.282 2.992-.501 5.64-1.759 7.66-3.636 2.992-2.782 4.313-6.728 3.622-10.83-.6-3.56-2.573-6.515-5.558-8.32C85.448.222 81.954-.373 78.382.226 74.755.835 71 2.675 68.339 5.15m1.73 1.853c2.369-2.202 5.675-3.765 8.733-4.278 5.986-1.003 11.471 1.942 12.476 7.917.583 3.463-.593 6.457-2.85 8.556-1.634 1.52-3.837 2.57-6.351 2.992-5.987 1.004-14.189-1.486-15.195-7.46-.49-2.922.918-5.618 3.187-7.727"/>
    </g>
</svg>
