<?xml version="1.0" encoding="UTF-8"?>
<svg xmlns="http://www.w3.org/2000/svg" xmlns:xlink="http://www.w3.org/1999/xlink" width="299pt" height="142pt" viewBox="0 0 299 142" version="1.1">
<g id="surface1">
<path style=" stroke:none;fill-rule:nonzero;fill:rgb(13.72549%,12.156863%,12.54902%);fill-opacity:1;" d="M 173.003906 11.550781 L 173.003906 34.757812 L 202.09375 34.757812 L 202.09375 43.074219 L 173.003906 43.074219 L 173.003906 111.589844 C 173.003906 118.59375 174.132812 123.953125 176.398438 127.675781 C 178.65625 131.398438 182.554688 133.257812 188.101562 133.257812 C 190.726562 133.257812 192.988281 133.113281 194.882812 132.820312 C 196.777344 132.53125 198.378906 132.164062 199.695312 131.726562 L 200.789062 139.605469 C 197.289062 141.210938 192.621094 142.015625 186.792969 142.015625 C 181.976562 142.015625 178.003906 141.210938 174.871094 139.605469 C 171.734375 138.003906 169.257812 135.777344 167.433594 132.929688 C 165.609375 130.082031 164.332031 126.660156 163.605469 122.644531 C 162.871094 118.632812 162.511719 114.292969 162.511719 109.621094 L 162.511719 43.074219 L 145.230469 43.074219 L 145.230469 34.757812 L 162.511719 34.757812 L 162.511719 15.488281 Z M 218.9375 34.753906 L 243 99.984375 C 245.039062 105.09375 246.863281 109.910156 248.464844 114.433594 C 250.070312 118.957031 251.597656 123.40625 253.058594 127.78125 L 253.496094 127.78125 C 254.949219 123.550781 256.519531 119.132812 258.199219 114.539062 C 259.871094 109.941406 261.734375 105.089844 263.773438 99.980469 L 288.050781 34.75 L 298.988281 34.75 L 257.210938 139.820312 L 248.242188 139.820312 L 208.003906 34.753906 Z M 218.9375 34.753906 "/>
<path style=" stroke:none;fill-rule:nonzero;fill:rgb(13.72549%,12.156863%,12.54902%);fill-opacity:1;" d="M 63.828125 12.359375 C 73.152344 0.0585938 86.117188 0 86.117188 0 C 86.117188 0 88.046875 11.566406 78.78125 22.699219 C 68.890625 34.597656 57.648438 32.648438 57.648438 32.648438 C 57.648438 32.648438 55.539062 23.292969 63.828125 12.359375 Z M 58.832031 40.75 C 63.628906 40.75 72.53125 34.152344 84.121094 34.152344 C 104.066406 34.152344 111.910156 48.355469 111.910156 48.355469 C 111.910156 48.355469 96.566406 56.207031 96.566406 75.261719 C 96.566406 96.757812 115.683594 104.160156 115.683594 104.160156 C 115.683594 104.160156 102.320312 141.804688 84.269531 141.804688 C 75.976562 141.804688 69.53125 136.210938 60.796875 136.210938 C 51.894531 136.210938 43.058594 142.011719 37.308594 142.011719 C 20.824219 142.015625 0 106.304688 0 77.601562 C 0 49.359375 17.628906 34.546875 34.15625 34.546875 C 44.90625 34.546875 53.25 40.75 58.832031 40.75 Z M 58.832031 40.75 "/>
</g>
</svg>
