<?xml version="1.0" encoding="UTF-8"?>
<svg xmlns="http://www.w3.org/2000/svg" xmlns:xlink="http://www.w3.org/1999/xlink" width="299pt" height="93pt" viewBox="0 0 299 93" version="1.1">
<g id="surface1">
<path style=" stroke:none;fill-rule:nonzero;fill:rgb(42.352941%,23.529412%,59.215686%);fill-opacity:1;" d="M 47.117188 30.578125 C 47.117188 22.070312 40.285156 15.21875 31.929688 15.21875 L 24.398438 15.21875 L 24.398438 45.804688 L 31.929688 45.804688 C 40.285156 45.804688 47.117188 38.949219 47.117188 30.578125 M 81.375 91.558594 L 53.730469 91.558594 L 31.78125 61.039062 L 24.398438 61.039062 L 24.398438 91.492188 L 0.0351562 91.492188 L 0.0351562 0 L 34.9375 0 C 55.058594 0 71.480469 13.710938 71.480469 30.578125 C 71.480469 40.867188 65.1875 50.058594 55.605469 55.679688 L 81.375 91.558594 "/>
<path style=" stroke:none;fill-rule:nonzero;fill:rgb(42.352941%,23.529412%,59.215686%);fill-opacity:1;" d="M 108.851562 36.070312 C 102.417969 36.070312 96.941406 44.832031 96.941406 55.679688 C 96.941406 66.527344 102.417969 75.304688 108.851562 75.304688 C 115.433594 75.304688 120.898438 66.527344 120.898438 55.679688 C 120.898438 44.832031 115.433594 36.070312 108.851562 36.070312 M 146.351562 55.679688 C 146.351562 76.40625 129.53125 93 108.851562 93 C 88.175781 93 71.480469 76.40625 71.480469 55.679688 C 71.480469 34.972656 88.175781 18.371094 108.851562 18.371094 C 129.53125 18.371094 146.351562 34.972656 146.351562 55.679688 M 203.523438 19.886719 L 175.457031 48.003906 L 175.457031 19.792969 L 151.097656 19.792969 L 151.097656 91.492188 L 175.457031 91.492188 L 175.457031 62.410156 L 204.757812 91.492188 L 235.417969 91.492188 L 198.183594 54.179688 L 229.023438 23.285156 L 229.023438 65.835938 C 229.023438 79.960938 237.503906 93 258.851562 93 C 268.988281 93 278.289062 87.238281 282.8125 82.027344 L 293.765625 91.492188 L 298.964844 91.492188 L 298.964844 19.886719 L 274.605469 19.886719 L 274.605469 66.246094 C 271.859375 71.046875 268.039062 74.0625 262.132812 74.0625 C 256.140625 74.0625 253.390625 70.5 253.390625 59.113281 L 253.390625 19.886719 Z M 203.523438 19.886719 "/>
</g>
</svg>
