<svg xmlns="http://www.w3.org/2000/svg" width="165.27" height="55.247" viewBox="0 0 165.27 55.247"><defs><style>.a{fill:#b7b7b7;}.b{fill:#000001;}.c{fill:#fff;}</style></defs><path class="a" d="M152.108,0H11.657c-.428,0-.843.014-1.271.014A18.5,18.5,0,0,0,7.624.262,9.311,9.311,0,0,0,5,1.133a8.386,8.386,0,0,0-2.237,1.63A8.386,8.386,0,0,0,1.133,5a9.311,9.311,0,0,0-.87,2.624,18.5,18.5,0,0,0-.249,2.762c0,.428-.014.856-.014,1.271V43.576c0,.428.014.843.028,1.271a18.5,18.5,0,0,0,.249,2.762,8.762,8.762,0,0,0,.87,2.624,8.32,8.32,0,0,0,1.63,2.224,8.386,8.386,0,0,0,2.237,1.63,9.311,9.311,0,0,0,2.624.87,18.666,18.666,0,0,0,2.762.249c.414.028.829.041,1.257.041H153.6c.414,0,.856,0,1.271-.014a18.5,18.5,0,0,0,2.762-.249,9.547,9.547,0,0,0,2.638-.87,8.611,8.611,0,0,0,2.237-1.63,8.738,8.738,0,0,0,2.486-4.848,20.543,20.543,0,0,0,.262-2.762V43.6c.014-.5.014-.994.014-1.505V13.176c0-.511,0-1.008-.014-1.505V10.4a16.85,16.85,0,0,0-.262-2.762,8.863,8.863,0,0,0-.856-2.624,8.916,8.916,0,0,0-3.867-3.867,9.547,9.547,0,0,0-2.638-.87A18.5,18.5,0,0,0,154.87.028c-.414,0-.856-.014-1.271-.014C153.116,0,152.6,0,152.108,0Z"/><path class="b" d="M11.325,53.7c-.414,0-.829,0-1.243-.014A19.767,19.767,0,0,1,7.5,53.461a8.141,8.141,0,0,1-2.293-.76,7.475,7.475,0,0,1-1.934-1.409,7.653,7.653,0,0,1-2.155-4.226,19,19,0,0,1-.235-2.6C.87,44.18.87,43.213.87,43.213V11.322s.014-.953.014-1.229A18.634,18.634,0,0,1,1.119,7.51,7.793,7.793,0,0,1,3.287,3.283a7.322,7.322,0,0,1,1.92-1.409,7.887,7.887,0,0,1,2.279-.746,15.564,15.564,0,0,1,2.6-.235L11.325.88H153.268l1.257.014a16.544,16.544,0,0,1,2.569.221,8.086,8.086,0,0,1,2.307.76,7.645,7.645,0,0,1,1.92,1.409,7.81,7.81,0,0,1,1.409,1.934,8.177,8.177,0,0,1,.746,2.279,16.975,16.975,0,0,1,.235,2.61v1.229c.014.525.014,1.008.014,1.505V41.749c0,.5,0,.994-.014,1.492v1.284a18.123,18.123,0,0,1-.235,2.555,7.794,7.794,0,0,1-.746,2.307,7.49,7.49,0,0,1-1.409,1.92,7.167,7.167,0,0,1-1.934,1.409,8.233,8.233,0,0,1-2.307.76,15.66,15.66,0,0,1-2.583.221c-.4.014-.829.014-1.243.014h-1.492Z" transform="translate(0.332 0.335)"/><g transform="translate(13.789 12.044)"><path class="c" d="M30.406,22.712a6.789,6.789,0,0,1,3.26-5.732A7.007,7.007,0,0,0,28.155,14c-2.32-.249-4.572,1.381-5.746,1.381-1.2,0-3.025-1.367-4.986-1.326a7.329,7.329,0,0,0-6.174,3.771c-2.666,4.627-.677,11.422,1.878,15.165,1.284,1.837,2.776,3.881,4.737,3.8,1.92-.083,2.638-1.215,4.945-1.215s2.956,1.215,4.958,1.174c2.058-.028,3.356-1.837,4.585-3.688a15.505,15.505,0,0,0,2.1-4.268A6.575,6.575,0,0,1,30.406,22.712Z" transform="translate(-9.984 -6.718)"/><path class="c" d="M23.285,13.54a6.636,6.636,0,0,0,1.533-4.82,6.9,6.9,0,0,0-4.434,2.293,6.365,6.365,0,0,0-1.575,4.641A5.672,5.672,0,0,0,23.285,13.54Z" transform="translate(-6.633 -8.72)"/><g transform="translate(33.764 12.638)"><path class="c" d="M45.3,30.593H38.767l-1.575,4.641H34.43L40.618,18.08H43.49l6.188,17.154H46.86Zm-5.856-2.141h5.179l-2.555-7.527H42Z" transform="translate(-34.43 -17.79)"/><path class="c" d="M58.411,27.731c0,3.881-2.086,6.381-5.221,6.381a4.264,4.264,0,0,1-3.936-2.182H49.2v6.188H46.63V21.474h2.486V23.56h.041a4.446,4.446,0,0,1,3.978-2.21C56.326,21.35,58.411,23.85,58.411,27.731Zm-2.638,0c0-2.528-1.312-4.2-3.3-4.2-1.961,0-3.287,1.7-3.287,4.2s1.326,4.213,3.287,4.213C54.461,31.944,55.773,30.286,55.773,27.731Z" transform="translate(-29.78 -16.544)"/><path class="c" d="M68.368,27.731c0,3.881-2.086,6.381-5.221,6.381A4.264,4.264,0,0,1,59.21,31.93h-.055v6.188H56.6V21.474h2.486V23.56h.041a4.446,4.446,0,0,1,3.978-2.21C66.282,21.35,68.368,23.85,68.368,27.731Zm-2.638,0c0-2.528-1.312-4.2-3.3-4.2-1.961,0-3.287,1.7-3.287,4.2s1.326,4.213,3.287,4.213C64.431,31.944,65.729,30.286,65.729,27.731Z" transform="translate(-25.98 -16.544)"/><path class="c" d="M72.434,30.535c.193,1.7,1.837,2.818,4.1,2.818,2.168,0,3.715-1.119,3.715-2.652,0-1.326-.939-2.127-3.163-2.679l-2.224-.539c-3.149-.76-4.613-2.238-4.613-4.627,0-2.956,2.583-4.986,6.243-4.986,3.619,0,6.1,2.03,6.188,4.986h-2.6c-.152-1.713-1.575-2.749-3.632-2.749s-3.481,1.05-3.481,2.569c0,1.215.9,1.92,3.108,2.472l1.892.47c3.522.829,4.986,2.251,4.986,4.751,0,3.2-2.555,5.221-6.616,5.221-3.8,0-6.367-1.961-6.533-5.069h2.624Z" transform="translate(-20.944 -17.87)"/><path class="c" d="M84.566,19.3v2.956h2.376v2.03H84.566v6.892c0,1.077.47,1.575,1.519,1.575.262,0,.677-.041.843-.055v2.017a7.194,7.194,0,0,1-1.423.124c-2.528,0-3.522-.953-3.522-3.37V24.3H80.16V22.27h1.823V19.3Z" transform="translate(-16.999 -17.325)"/><path class="c" d="M86.06,27.739c0-3.936,2.32-6.409,5.925-6.409S97.91,23.8,97.91,27.739s-2.293,6.409-5.925,6.409S86.06,31.689,86.06,27.739Zm9.254,0c0-2.693-1.243-4.3-3.315-4.3s-3.315,1.6-3.315,4.3,1.229,4.3,3.315,4.3S95.314,30.446,95.314,27.739Z" transform="translate(-14.75 -16.551)"/><path class="c" d="M96.19,21.478h2.445v2.127h.055A2.99,2.99,0,0,1,101.7,21.34a4.382,4.382,0,0,1,.884.1v2.4a3.611,3.611,0,0,0-1.146-.152,2.586,2.586,0,0,0-2.679,2.873v7.417H96.19v-12.5Z" transform="translate(-10.889 -16.547)"/><path class="c" d="M112.494,30.321c-.345,2.265-2.555,3.826-5.387,3.826-3.632,0-5.9-2.431-5.9-6.353S103.475,21.33,107,21.33c3.453,0,5.635,2.376,5.635,6.174v.884h-8.826v.152a3.251,3.251,0,0,0,3.37,3.536,2.834,2.834,0,0,0,2.887-1.754h2.431Zm-8.674-3.743h6.257a3,3,0,0,0-3.066-3.177A3.2,3.2,0,0,0,103.82,26.578Z" transform="translate(-8.976 -16.551)"/></g></g><g transform="translate(49.266 11.657)"><path class="c" d="M38.653,8.73c2.445,0,3.881,1.505,3.881,4.088,0,2.638-1.423,4.144-3.881,4.144H35.67V8.73Zm-1.7,7.072H38.5c1.726,0,2.721-1.077,2.721-2.97,0-1.865-1.008-2.942-2.721-2.942H36.954Z" transform="translate(-35.67 -8.329)"/><path class="c" d="M41.68,13.332c0-2,1.119-3.232,2.928-3.232s2.928,1.215,2.928,3.232-1.119,3.232-2.928,3.232S41.68,15.348,41.68,13.332Zm4.6,0c0-1.354-.608-2.141-1.671-2.141s-1.671.787-1.671,2.141.594,2.141,1.671,2.141S46.279,14.686,46.279,13.332Z" transform="translate(-33.379 -7.807)"/><path class="c" d="M53.476,16.415H52.205L50.921,11.83h-.1L49.54,16.415H48.283L46.57,10.2h1.243l1.119,4.751h.1L50.313,10.2h1.174l1.284,4.751h.1l1.1-4.751H55.2Z" transform="translate(-31.515 -7.769)"/><path class="c" d="M53.85,10.22h1.188v.994h.1a1.864,1.864,0,0,1,1.851-1.1,2.023,2.023,0,0,1,2.155,2.307V16.45H57.911V12.734c0-.994-.428-1.492-1.34-1.492a1.43,1.43,0,0,0-1.492,1.575V16.45H53.85Z" transform="translate(-28.74 -7.803)"/><path class="c" d="M59.09,8.44h1.229v8.646H59.09Z" transform="translate(-26.743 -8.44)"/><path class="c" d="M61.22,13.332c0-2,1.119-3.232,2.928-3.232s2.928,1.215,2.928,3.232-1.119,3.232-2.928,3.232S61.22,15.348,61.22,13.332Zm4.6,0c0-1.354-.608-2.141-1.671-2.141s-1.671.787-1.671,2.141.594,2.141,1.671,2.141S65.819,14.686,65.819,13.332Z" transform="translate(-25.931 -7.807)"/><path class="c" d="M66.4,14.682c0-1.119.829-1.768,2.307-1.851l1.685-.1V12.2c0-.663-.428-1.022-1.271-1.022-.691,0-1.16.249-1.3.691H66.635c.124-1.064,1.133-1.754,2.541-1.754,1.561,0,2.445.773,2.445,2.086V16.45H70.433v-.87h-.1a2.1,2.1,0,0,1-1.865.981A1.891,1.891,0,0,1,66.4,14.682Zm4.005-.525v-.525l-1.519.1c-.856.055-1.243.345-1.243.9s.483.884,1.146.884A1.465,1.465,0,0,0,70.405,14.157Z" transform="translate(-23.957 -7.803)"/><path class="c" d="M71.35,13.965c0-1.961,1.008-3.2,2.583-3.2a2.028,2.028,0,0,1,1.906,1.091h.1V8.44h1.229v8.646H75.977v-.981h-.1A2.163,2.163,0,0,1,73.933,17.2C72.344,17.183,71.35,15.94,71.35,13.965Zm1.271,0c0,1.326.622,2.113,1.657,2.113s1.671-.8,1.671-2.113-.649-2.113-1.671-2.113S72.621,12.666,72.621,13.965Z" transform="translate(-22.07 -8.44)"/><path class="c" d="M79.23,13.332c0-2,1.119-3.232,2.928-3.232s2.928,1.215,2.928,3.232-1.119,3.232-2.928,3.232S79.23,15.348,79.23,13.332Zm4.6,0c0-1.354-.608-2.141-1.671-2.141s-1.671.787-1.671,2.141.594,2.141,1.671,2.141S83.829,14.686,83.829,13.332Z" transform="translate(-19.066 -7.807)"/><path class="c" d="M84.67,10.22h1.188v.994h.1a1.865,1.865,0,0,1,1.851-1.1,2.023,2.023,0,0,1,2.155,2.307V16.45H88.731V12.734c0-.994-.428-1.492-1.34-1.492A1.43,1.43,0,0,0,85.9,12.817V16.45H84.67Z" transform="translate(-16.993 -7.803)"/><path class="c" d="M94.126,9.07v1.575H95.48V11.68H94.126v3.2c0,.649.262.939.884.939.193,0,.29-.014.47-.028v1.022a4.659,4.659,0,0,1-.663.069c-1.367,0-1.906-.483-1.906-1.685V11.694H91.93V10.658h.981V9.07Z" transform="translate(-14.226 -8.2)"/><path class="c" d="M95.7,8.44h1.215v3.425h.1A1.921,1.921,0,0,1,98.9,10.747a2.049,2.049,0,0,1,2.141,2.32v4.019H99.816V13.371c0-.994-.456-1.492-1.326-1.492a1.448,1.448,0,0,0-1.561,1.575v3.632H95.7Z" transform="translate(-12.789 -8.44)"/><path class="c" d="M106.3,14.765a2.513,2.513,0,0,1-2.693,1.8c-1.782,0-2.873-1.215-2.873-3.2s1.119-3.246,2.873-3.246c1.726,0,2.776,1.188,2.776,3.135v.428h-4.392v.069a1.646,1.646,0,0,0,1.657,1.782,1.464,1.464,0,0,0,1.478-.76H106.3Zm-4.309-2h3.135a1.5,1.5,0,0,0-1.533-1.616A1.588,1.588,0,0,0,101.987,12.762Z" transform="translate(-10.871 -7.803)"/></g></svg>