<svg xmlns="http://www.w3.org/2000/svg" width="63" height="62.999" viewBox="0 0 63 62.999"><defs><style>.a{fill:#2969b2;}.b{fill:#fff;}</style></defs><g transform="translate(-183.607 -129.846)"><g transform="translate(183.608 129.846)"><path class="a" d="M215.108,192.845a31.5,31.5,0,1,1,31.5-31.5A31.536,31.536,0,0,1,215.108,192.845Zm0-61a29.5,29.5,0,1,0,29.5,29.5A29.538,29.538,0,0,0,215.108,131.842Z" transform="translate(-183.608 -129.846)"/><ellipse class="a" cx="23.748" cy="23.748" rx="23.748" ry="23.748" transform="translate(7.752 7.752)"/></g><path class="b" d="M215.935,172.944V161.4h3.809l.6-3.825h-4.411v-1.918c0-1,.328-1.951,1.76-1.951h2.864v-3.818h-4.066c-3.418,0-4.35,2.25-4.35,5.371v2.314H209.8V161.4h2.346v11.544Z" transform="translate(-0.07 -0.07)"/></g></svg>