<svg xmlns="http://www.w3.org/2000/svg" width="18.66" height="22.892" viewBox="0 0 18.66 22.892"><defs><style>.a{fill:#627d8e;opacity:0.6;}</style></defs><path class="a" d="M-387.206-2234.592c-2.457,0-4.913.008-7.37,0-.678,0-1.573.215-1.787-.678a2.152,2.152,0,0,1,.72-2.17,8.461,8.461,0,0,1,3.515-1.618,5.2,5.2,0,0,0,1.808-.691,1.733,1.733,0,0,0,.721-1.7c-.061-.8-.726-.757-1.206-.873a8.226,8.226,0,0,1-3.836-1.945c-.743-.7-1.022-1.469-.061-2.284a7.158,7.158,0,0,0,2.333-5.786,4.827,4.827,0,0,1,5.2-5.124c3.316-.022,5.3,1.872,5.385,5.1.058,2.206.479,4.293,2.306,5.8.959.79.724,1.565-.021,2.287a7.613,7.613,0,0,1-3.687,1.9c-.567.13-1.242.058-1.364.885a1.609,1.609,0,0,0,.922,1.874c.865.375,1.828.522,2.694.9,1.254.542,2.7.854,3.09,2.535.268,1.15-.115,1.611-1.239,1.609Q-383.146-2234.6-387.206-2234.592Z" transform="translate(396.424 2257.468)"/></svg>