<svg xmlns="http://www.w3.org/2000/svg" xmlns:xlink="http://www.w3.org/1999/xlink" width="186.457" height="55.247" viewBox="0 0 186.457 55.247"><defs><style>.a{fill:#a6a6a6;}.b,.c,.j{fill:#fff;}.b{stroke:#fff;stroke-miterlimit:10;stroke-width:0.2px;}.d{fill:url(#a);}.e{fill:url(#b);}.f{fill:url(#c);}.g{fill:url(#d);}.h{opacity:0.2;}.i{opacity:0.12;}.j{opacity:0.25;}</style><linearGradient id="a" x1="0.915" y1="6.617" x2="-0.384" y2="5.947" gradientUnits="objectBoundingBox"><stop offset="0" stop-color="#00a0ff"/><stop offset="0.007" stop-color="#00a1ff"/><stop offset="0.26" stop-color="#00beff"/><stop offset="0.512" stop-color="#00d2ff"/><stop offset="0.76" stop-color="#00dfff"/><stop offset="1" stop-color="#00e3ff"/></linearGradient><linearGradient id="b" x1="1.076" y1="17.089" x2="-1.305" y2="17.089" gradientUnits="objectBoundingBox"><stop offset="0" stop-color="#ffe000"/><stop offset="0.409" stop-color="#ffbd00"/><stop offset="0.775" stop-color="orange"/><stop offset="1" stop-color="#ff9c00"/></linearGradient><linearGradient id="c" x1="0.863" y1="10.864" x2="-0.502" y2="9.095" gradientUnits="objectBoundingBox"><stop offset="0" stop-color="#ff3a44"/><stop offset="1" stop-color="#c31162"/></linearGradient><linearGradient id="d" x1="-0.188" y1="13.585" x2="0.421" y2="12.794" gradientUnits="objectBoundingBox"><stop offset="0" stop-color="#32a071"/><stop offset="0.068" stop-color="#2da771"/><stop offset="0.476" stop-color="#15cf74"/><stop offset="0.801" stop-color="#06e775"/><stop offset="1" stop-color="#00f076"/></linearGradient></defs><path d="M179.551,55.247H6.906A6.926,6.926,0,0,1,0,48.341V6.906A6.926,6.926,0,0,1,6.906,0H179.551a6.926,6.926,0,0,1,6.906,6.906V48.341A6.926,6.926,0,0,1,179.551,55.247Z"/><path class="a" d="M179.551,1.1a5.8,5.8,0,0,1,5.8,5.8V48.341a5.8,5.8,0,0,1-5.8,5.8H6.906a5.8,5.8,0,0,1-5.8-5.8V6.906a5.8,5.8,0,0,1,5.8-5.8H179.551m0-1.1H6.906A6.926,6.926,0,0,0,0,6.906V48.341a6.926,6.926,0,0,0,6.906,6.906H179.551a6.926,6.926,0,0,0,6.906-6.906V6.906A6.926,6.926,0,0,0,179.551,0Z"/><g transform="translate(57.111 9.489)"><path class="b" d="M49.734,11.525A3.7,3.7,0,0,1,48.7,14.287a4.016,4.016,0,0,1-3.039,1.229,4.269,4.269,0,0,1-4.309-4.323,4.135,4.135,0,0,1,1.257-3.08,4.363,4.363,0,0,1,4.751-.9,3.514,3.514,0,0,1,1.3.925l-.732.732a2.81,2.81,0,0,0-2.265-.981,3.129,3.129,0,0,0-2.265.925,3.163,3.163,0,0,0-.953,2.389A3.262,3.262,0,0,0,47.98,13.6a2.584,2.584,0,0,0,.691-1.685H45.659V10.9h4.019A5.173,5.173,0,0,1,49.734,11.525Z" transform="translate(-41.35 -6.87)"/><path class="b" d="M53.364,8.022H49.594v2.624h3.4v.994h-3.4v2.624h3.771v1.022H48.53V7h4.834Z" transform="translate(-38.613 -6.82)"/><path class="b" d="M56.214,15.287H55.15V8.022H52.83V7h5.69V8.022H56.2v7.265Z" transform="translate(-36.974 -6.82)"/><path class="b" d="M59.94,15.287V7H61v8.287Z" transform="translate(-34.264 -6.82)"/><path class="b" d="M65.064,15.287H64V8.022H61.68V7h5.69V8.022H65.05v7.265Z" transform="translate(-33.601 -6.82)"/><path class="b" d="M75.623,14.259a4.3,4.3,0,0,1-6.077,0,4.242,4.242,0,0,1-1.215-3.066,4.219,4.219,0,0,1,1.215-3.066A4.043,4.043,0,0,1,72.584,6.87a4.086,4.086,0,0,1,3.039,1.257,4.254,4.254,0,0,1,1.229,3.066A4.265,4.265,0,0,1,75.623,14.259Zm-5.29-.691a3.2,3.2,0,0,0,4.5,0,3.26,3.26,0,0,0,.925-2.376,3.205,3.205,0,0,0-.925-2.376,3.184,3.184,0,0,0-4.5-.014,3.315,3.315,0,0,0-.925,2.389A3.26,3.26,0,0,0,70.333,13.569Z" transform="translate(-31.066 -6.87)"/><path class="b" d="M75.58,15.287V7h1.3l4.033,6.45h.041l-.041-1.6V7h1.064v8.287h-1.1L76.657,8.533h-.041l.041,1.6v5.152Z" transform="translate(-28.303 -6.82)"/></g><path class="c" d="M78.47,23.542a5.87,5.87,0,1,0,5.9,5.87A5.793,5.793,0,0,0,78.47,23.542Zm0,9.433a3.4,3.4,0,0,1-3.315-3.563,3.323,3.323,0,1,1,6.63,0A3.4,3.4,0,0,1,78.47,32.975ZM65.6,23.542a5.87,5.87,0,1,0,5.9,5.87A5.793,5.793,0,0,0,65.6,23.542Zm0,9.433a3.4,3.4,0,0,1-3.315-3.563,3.323,3.323,0,1,1,6.63,0A3.4,3.4,0,0,1,65.6,32.975Zm-15.3-7.624v2.486H56.26a5.244,5.244,0,0,1-1.354,3.135,6.092,6.092,0,0,1-4.6,1.823,6.63,6.63,0,0,1,0-13.259A6.313,6.313,0,0,1,54.8,21.318l1.754-1.754a8.7,8.7,0,0,0-6.257-2.514,9.13,9.13,0,1,0,0,18.259,8.328,8.328,0,0,0,6.367-2.555,8.243,8.243,0,0,0,2.155-5.829,7.535,7.535,0,0,0-.138-1.561H50.294Zm62.581,1.934a5.451,5.451,0,0,0-5.027-3.743,5.578,5.578,0,0,0-5.538,5.87,5.745,5.745,0,0,0,5.829,5.87,5.82,5.82,0,0,0,4.889-2.6l-2-1.34a3.342,3.342,0,0,1-2.887,1.63,2.988,2.988,0,0,1-2.845-1.782l7.859-3.246Zm-8.011,1.961a3.219,3.219,0,0,1,3.066-3.425,2.281,2.281,0,0,1,2.182,1.243Zm-6.381,5.69h2.583V17.672H98.483ZM94.256,24.854h-.1a4.061,4.061,0,0,0-3.094-1.312,5.882,5.882,0,0,0,0,11.754,4,4,0,0,0,3.094-1.34h.083V34.8c0,2.251-1.2,3.453-3.135,3.453a3.252,3.252,0,0,1-2.956-2.086L85.9,37.1a5.6,5.6,0,0,0,5.207,3.467c3.025,0,5.58-1.782,5.58-6.119V23.9H94.242v.953Zm-2.97,8.121a3.372,3.372,0,0,1-3.273-3.536,3.392,3.392,0,0,1,3.273-3.577,3.313,3.313,0,0,1,3.135,3.577A3.266,3.266,0,0,1,91.287,32.975Zm33.687-15.3H118.8V34.936h2.583V28.389h3.6a5.47,5.47,0,0,0,5.663-5.359A5.49,5.49,0,0,0,124.973,17.672Zm.055,8.315h-3.66V20.061h3.66a2.963,2.963,0,1,1,0,5.925Zm15.939-2.472a4.859,4.859,0,0,0-4.6,2.638l2.293.953a2.437,2.437,0,0,1,2.348-1.271,2.471,2.471,0,0,1,2.707,2.224v.18a5.768,5.768,0,0,0-2.693-.663c-2.472,0-4.972,1.354-4.972,3.881,0,2.307,2.017,3.8,4.282,3.8a3.632,3.632,0,0,0,3.287-1.685h.083v1.34h2.486V28.293C146.2,25.227,143.909,23.514,140.967,23.514Zm-.318,9.461c-.843,0-2.017-.428-2.017-1.464,0-1.326,1.464-1.837,2.735-1.837a4.548,4.548,0,0,1,2.348.58A3.117,3.117,0,0,1,140.65,32.975Zm14.613-9.088-2.956,7.486h-.083l-3.066-7.486h-2.776l4.6,10.469-2.624,5.815h2.693l7.085-16.284Zm-23.2,11.049h2.583V17.672h-2.583Z" transform="translate(15.643 6.499)"/><g transform="translate(13.77 9.863)"><path class="d" d="M10.615,7.567A2.779,2.779,0,0,0,9.98,9.5V40.052a2.731,2.731,0,0,0,.635,1.934l.1.1,17.113-17.1v-.414L10.712,7.47Z" transform="translate(-9.966 -7.016)"/><path class="e" d="M28.6,27.543l-5.7-5.7v-.414l5.7-5.7.124.069,6.754,3.84c1.934,1.091,1.934,2.887,0,3.992l-6.754,3.84Z" transform="translate(-5.042 -3.871)"/><path class="f" d="M33.478,25.842,27.649,20,10.44,37.209c.635.677,1.685.76,2.873.083l20.165-11.45" transform="translate(-9.791 -2.24)"/><path class="g" d="M33.482,19.073,13.3,7.609c-1.188-.677-2.237-.594-2.873.083L27.653,24.9Z" transform="translate(-9.795 -7.141)"/><g transform="translate(0.014 23.465)"><path class="h" d="M33.354,24.13,13.3,35.525a2.3,2.3,0,0,1-2.762.014h0l-.1.1h0l.1.1h0a2.3,2.3,0,0,0,2.762-.014L33.478,24.254Z" transform="translate(-9.805 -24.13)"/><path class="i" d="M10.615,32.854A2.779,2.779,0,0,1,9.98,30.92v.207a2.731,2.731,0,0,0,.635,1.934l.1-.1Z" transform="translate(-9.98 -21.542)"/></g><path class="i" d="M33.912,21.8,27.02,25.7l.124.124,6.754-3.84A2.428,2.428,0,0,0,35.348,20h0A2.512,2.512,0,0,1,33.912,21.8Z" transform="translate(-3.471 -2.24)"/><path class="j" d="M13.478,7.8,40.411,23.1a2.581,2.581,0,0,1,1.45,1.8h0a2.41,2.41,0,0,0-1.45-1.989L13.478,7.607c-1.934-1.091-3.508-.18-3.508,2.03v.207C9.97,7.621,11.558,6.71,13.478,7.8Z" transform="translate(-9.97 -7.139)"/></g></svg>