<svg xmlns="http://www.w3.org/2000/svg" width="63" height="62.999" viewBox="0 0 63 62.999"><defs><style>.a{fill:#2969b2;}.b{fill:#fff;}</style></defs><g transform="translate(-254.43 -129.846)"><g transform="translate(254.43 129.846)"><ellipse class="a" cx="23.748" cy="23.748" rx="23.748" ry="23.748" transform="translate(7.752 7.752)"/><path class="a" d="M285.93,192.845a31.5,31.5,0,1,1,31.5-31.5A31.536,31.536,0,0,1,285.93,192.845Zm0-61a29.5,29.5,0,1,0,29.5,29.5A29.538,29.538,0,0,0,285.93,131.842Z" transform="translate(-254.43 -129.846)"/></g><g transform="translate(273.511 148.927)"><path class="b" d="M291.564,149H280.435a6.862,6.862,0,0,0-6.854,6.854V166.98a6.862,6.862,0,0,0,6.854,6.855h11.129a6.863,6.863,0,0,0,6.855-6.855V155.851A6.862,6.862,0,0,0,291.564,149Zm4.651,17.983a4.655,4.655,0,0,1-4.65,4.651h-11.13a4.655,4.655,0,0,1-4.65-4.651V155.851a4.655,4.655,0,0,1,4.65-4.65h11.129a4.655,4.655,0,0,1,4.651,4.65V166.98Z" transform="translate(-273.581 -148.997)"/><path class="b" d="M286,155.016a6.4,6.4,0,1,0,6.4,6.4A6.407,6.407,0,0,0,286,155.016Zm0,10.6a4.2,4.2,0,1,1,4.2-4.2A4.2,4.2,0,0,1,286,165.612Z" transform="translate(-273.581 -148.997)"/><path class="b" d="M292.668,153.147a1.617,1.617,0,1,0,1.143.474A1.62,1.62,0,0,0,292.668,153.147Z" transform="translate(-273.581 -148.997)"/></g></g></svg>