<svg xmlns="http://www.w3.org/2000/svg" width="20.809" height="23.492" viewBox="0 0 20.809 23.492"><defs><style>.a{fill:#05a8f0;stroke:#0671b8;}</style></defs><path class="a" d="M-478.026-2075.937q-4.066,0-8.132,0c-.649,0-1.34.053-1.68-.645a1.929,1.929,0,0,1,.37-2.07,6.207,6.207,0,0,1,3.348-2.039c.607-.2,1.234-.336,1.837-.542,2.083-.711,2.308-1.7,1.133-3.5a52.1,52.1,0,0,1-2.936-5.393c-.286-.574-.556-1.347.355-1.772.558-.261.2-.706.17-1.033-.305-3.778,2.035-4.94,5.554-5.435,3.245-.458,5.4,1.869,5.438,5.14a2.09,2.09,0,0,0,.38,1.479,2.272,2.272,0,0,1-.4,2.845c-1.188,1.47-1.56,3.374-2.844,4.791-.777.858-.281,2.108.945,2.612,1.132.464,2.338.747,3.5,1.145a3.844,3.844,0,0,1,2.609,2.408c.467,1.369.078,1.979-1.366,1.993C-472.507-2075.918-475.267-2075.938-478.026-2075.937Z" transform="translate(488.506 2098.925)"/></svg>