<svg xmlns="http://www.w3.org/2000/svg" width="249.275" height="69.723" viewBox="0 0 249.275 69.723"><defs><style>.a{fill:#d04144;}.b{fill:#eeb326;}.c{fill:#2969b2;}.d{fill:#7ac043;}.e{fill:#995797;}.f{fill:#c83536;}</style></defs><g transform="translate(-330.252 -725.475)"><rect class="a" width="7.6" height="7.601" transform="translate(401.092 732.76) rotate(-73.451)"/><rect class="a" width="7.6" height="7.602" transform="translate(418.384 755.01) rotate(-73.448)"/><rect class="a" width="4.669" height="4.67" transform="translate(399.066 793.184) rotate(-73.448)"/><rect class="a" width="4.669" height="4.67" transform="translate(375.918 732.546) rotate(-73.448)"/><rect class="b" width="4.669" height="4.67" transform="translate(420.323 767.471) rotate(-73.446)"/><rect class="a" width="4.669" height="4.67" transform="translate(373.501 790.488) rotate(-73.452)"/><rect class="c" width="2.235" height="2.236" transform="translate(382.719 794.561) rotate(-73.447)"/><rect class="c" width="2.815" height="2.816" transform="translate(416.182 774.85) rotate(-73.452)"/><rect class="b" width="2.815" height="2.816" transform="matrix(0.285, -0.959, 0.959, 0.285, 360.73, 738.712)"/><rect class="b" width="2.815" height="2.816" transform="translate(366.87 789.152) rotate(-73.453)"/><rect class="d" width="2.815" height="2.816" transform="translate(360.332 783.084) rotate(-73.447)"/><rect class="d" width="1.66" height="1.66" transform="matrix(0.285, -0.959, 0.959, 0.285, 357.659, 792.514)"/><rect class="c" width="1.659" height="1.659" transform="matrix(0.285, -0.959, 0.959, 0.285, 392.737, 792.888)"/><rect class="c" width="1.659" height="1.66" transform="matrix(0.285, -0.959, 0.959, 0.285, 365.362, 734.557)"/><rect class="e" width="1.659" height="1.659" transform="matrix(0.285, -0.959, 0.959, 0.285, 354.029, 793.581)"/><path class="e" d="M340.229,791.863l-9.977,3.583,6.495,14.135,6.4-1.666Z" transform="translate(0 -39.543)"/><path class="c" d="M367.916,776.927l-11.038,1.344,4.548,25.005,8.76-2.071Z" transform="translate(-15.86 -30.646)"/><path class="b" d="M545.57,813.319l-3.245-3.75-.515,7.531Z" transform="translate(-126.011 -50.089)"/><path class="b" d="M479.3,745.8l-5.626-6.5-5.835,5.427Z" transform="translate(-81.953 -8.233)"/><path class="b" d="M459.024,868.77l8.7,8.507,7.744-7.789Z" transform="translate(-76.701 -85.351)"/><path class="b" d="M413.059,789.182l-10.575,9.835,10.147,9.919Z" transform="translate(-43.024 -37.946)"/><path class="d" d="M403.617,798.793l-11.23-10.977-1.213-1.186,1.242-1.156,11.725-10.9.133-6.136-16.844.145,3.2,34.217,12.943-1.936Z" transform="translate(-34.057 -25.588)"/><path class="f" d="M431.99,753.505l-.963,44.5,42.072,1.839,2.886-42.208Zm35.48,39.96-30.382-1.327.7-32.132,31.772,2.981Z" transform="translate(-60.025 -16.696)"/><path class="a" d="M470.222,803.292a1.983,1.983,0,1,1,1.8,2.15,1.984,1.984,0,0,1-1.8-2.15" transform="translate(-83.366 -45.273)"/><path class="a" d="M500.172,805.932a1.983,1.983,0,1,1,1.8,2.15,1.984,1.984,0,0,1-1.8-2.15" transform="translate(-101.205 -46.845)"/><path class="a" d="M478.847,832.932a6.079,6.079,0,0,0,6.589-5.521l-12.111-1.067a6.079,6.079,0,0,0,5.522,6.588" transform="translate(-85.205 -60.081)"/><path class="f" d="M598.568,795.778l1.5-.013,4.845,7.123,4.721-7.206,1.5-.013.113,13.13-1.482.012-.092-10.635-4.722,7.075h-.075l-4.843-6.973.092,10.616-1.445.013Z" transform="translate(-159.818 -41.81)"/><path class="f" d="M637.057,810.008l-.052-6.021,1.443-.012.049,5.665c.016,1.8,1,2.918,2.708,2.9a2.864,2.864,0,0,0,2.881-3.064l-.048-5.552,1.426-.012.083,9.7-1.426.013-.015-1.688a3.693,3.693,0,0,1-3.3,1.922,3.541,3.541,0,0,1-3.747-3.85" transform="translate(-182.713 -46.721)"/><path class="f" d="M663.208,812.032l.723-1.038A5.669,5.669,0,0,0,667.3,812.2c1.163-.01,2-.618,1.994-1.556v-.038c-.009-.975-1.156-1.34-2.435-1.686-1.523-.418-3.216-.928-3.231-2.71v-.037c-.014-1.669,1.364-2.788,3.277-2.8a6.635,6.635,0,0,1,3.5,1.039l-.648,1.094a5.478,5.478,0,0,0-2.877-.913c-1.144.01-1.871.616-1.863,1.423v.037c.008.919,1.211,1.265,2.509,1.649,1.5.437,3.122,1,3.138,2.748v.037c.016,1.839-1.494,2.92-3.426,2.937a6.661,6.661,0,0,1-4.027-1.391" transform="translate(-198.32 -46.398)"/><rect class="f" width="1.444" height="13.693" transform="translate(474.685 753.095) rotate(-0.494)"/><path class="f" d="M698.481,794.359l1.651-.014.014,1.594-1.651.015Zm.126,3.713,1.444-.012.084,9.7-1.444.012Z" transform="translate(-219.33 -41.021)"/><path class="f" d="M709.739,803.022l1.444-.013.015,1.632a3.54,3.54,0,0,1,3.117-1.865,3.294,3.294,0,0,1,3.13,1.9,3.864,3.864,0,0,1,3.4-1.961c2.232-.019,3.614,1.469,3.635,3.87l.051,6-1.444.012-.049-5.664c-.016-1.875-.962-2.918-2.538-2.9a2.715,2.715,0,0,0-2.657,3.024l.048,5.59-1.426.012-.049-5.7c-.016-1.819-.982-2.88-2.519-2.867a2.811,2.811,0,0,0-2.675,3.081l.048,5.533-1.444.012Z" transform="translate(-226.036 -46.009)"/><path class="c" d="M755.888,795.084l2.888-.025.05,5.74,5.277-5.785,3.489-.031-5.3,5.617,5.655,7.51-3.47.03-4.118-5.554-1.506,1.588.035,4.014-2.889.025Z" transform="translate(-253.523 -41.401)"/><path class="c" d="M788.208,793.524l3-.026.022,2.533-3,.026Zm.107,3.638,2.85-.025.087,10.054-2.851.025Z" transform="translate(-272.775 -40.517)"/><path class="c" d="M800.22,802.011v-.038c-.029-3.357,2.15-5.214,4.532-5.235a3.86,3.86,0,0,1,3.145,1.474l-.042-4.952,2.851-.025.118,13.692-2.851.025-.013-1.444a3.69,3.69,0,0,1-3.118,1.659c-2.345.02-4.592-1.8-4.622-5.156m7.747-.067v-.038a2.468,2.468,0,1,0-4.9.042v.038a2.468,2.468,0,1,0,4.9-.042" transform="translate(-279.929 -40.36)"/><path class="c" d="M829.849,810.651l1.2-1.886a5.688,5.688,0,0,0,3.18,1.173c.825-.007,1.2-.31,1.194-.76v-.038c-.005-.619-.983-.817-2.092-1.144-1.411-.4-3.01-1.044-3.027-2.994v-.038c-.017-2.045,1.623-3.2,3.649-3.221a6.961,6.961,0,0,1,3.761,1.131l-1.071,1.979a5.958,5.958,0,0,0-2.728-.914c-.694.006-1.048.309-1.044.7v.037c.005.563.964.817,2.055,1.183,1.411.457,3.049,1.118,3.065,2.956v.038c.019,2.232-1.641,3.259-3.817,3.277a7.043,7.043,0,0,1-4.327-1.482" transform="translate(-297.577 -45.427)"/><path class="f" d="M878.192,767.648a17.326,17.326,0,1,0,17.475,17.176,17.326,17.326,0,0,0-17.475-17.176m-5.735,21.06,1.557-.013.021,2.495-6.977.06-.021-2.495,1.538-.013-.07-8.14-1.613.014.021,2.4-2.757.024-.042-4.877,12.586-.108.042,4.877-2.757.024-.021-2.4-1.576.013Zm13.9,2.375-3.451.03-5.063-10.629-1.031.009-.021-2.438,6.921-.06,0,2.438-1.013.009,1.63,4.188a11.521,11.521,0,0,1,.6,2.265h.093a9.459,9.459,0,0,1,.655-2.388l1.672-4.1-.975.008-.04-2.438,5.327-.046.021,2.438-.919.008Z" transform="translate(-316.141 -25.119)"/></g></svg>