<svg xmlns="http://www.w3.org/2000/svg" width="48" height="48" viewBox="0 0 48 48"><defs><style>.a{fill:#2969b2;}.b{fill:#fff;}</style></defs><g transform="translate(-191.36 -137.598)"><g transform="translate(191.36 137.598)"><circle class="a" cx="24" cy="24" r="24"/></g><path class="b" d="M165.9,171.452c0-.257,0-.512-.016-.764a11.572,11.572,0,0,0,2.809-3.02,10.785,10.785,0,0,1-3.233.885,5.777,5.777,0,0,0,2.476-3.233,10.809,10.809,0,0,1-3.574,1.378,5.6,5.6,0,0,0-4.108-1.938,5.687,5.687,0,0,0-5.628,5.866,6.255,6.255,0,0,0,.146,1.359,15.849,15.849,0,0,1-11.6-6.41,6.313,6.313,0,0,0,1.742,8.041,5.387,5.387,0,0,1-2.55-.78v.076a5.979,5.979,0,0,0,4.516,5.924,5.331,5.331,0,0,1-1.482.2,5.142,5.142,0,0,1-1.058-.116,5.721,5.721,0,0,0,5.257,4.189,10.863,10.863,0,0,1-6.989,2.545,10.723,10.723,0,0,1-1.343-.086,15.184,15.184,0,0,0,8.629,2.7C160.238,188.277,165.9,179.268,165.9,171.452Z" transform="translate(60.469 -14.434)"/></g></svg>