<svg xmlns="http://www.w3.org/2000/svg" width="63" height="62.999" viewBox="0 0 63 62.999"><defs><style>.a{fill:#2969b2;}.b{fill:#fff;}</style></defs><g transform="translate(-476.551 -129.847)"><g transform="translate(476.55 129.847)"><path class="a" d="M508.05,192.846a31.5,31.5,0,1,1,31.5-31.5A31.536,31.536,0,0,1,508.05,192.846Zm0-61a29.5,29.5,0,1,0,29.5,29.5A29.537,29.537,0,0,0,508.05,131.843Z" transform="translate(-476.55 -129.847)"/><ellipse class="a" cx="23.748" cy="23.748" rx="23.748" ry="23.748" transform="translate(7.752 7.751)"/></g><g transform="translate(495.444 152.187)"><path class="b" d="M521.14,155.123a3.278,3.278,0,0,0-2.307-2.306c-2.047-.56-10.236-.56-10.236-.56s-8.19,0-10.237.538a3.345,3.345,0,0,0-2.306,2.328,37.008,37.008,0,0,0,0,12.586,3.28,3.28,0,0,0,2.306,2.306c2.069.56,10.237.56,10.237.56s8.189,0,10.236-.539a3.278,3.278,0,0,0,2.307-2.306,34.589,34.589,0,0,0,.538-6.293A32.8,32.8,0,0,0,521.14,155.123Zm-15.151,10.215v-7.844l6.81,3.922Z" transform="translate(-495.515 -152.257)"/><path class="a" d="M505.989,165.338l6.81-3.922-6.81-3.922Z" transform="translate(-495.515 -152.257)"/></g></g></svg>