<svg xmlns="http://www.w3.org/2000/svg" width="160" height="47" viewBox="0 0 160 47">
    <g fill="none" fill-rule="nonzero">
        <path fill="#A6A6A6" d="M154.308 47H5.605C2.515 47 0 44.5 0 41.439V5.553C0 2.491 2.515 0 5.605 0h148.703C157.396 0 160 2.491 160 5.553V41.44c0 3.06-2.604 5.561-5.692 5.561z"/>
        <path fill="#000" d="M158.853 41.44c0 2.486-2.032 4.5-4.544 4.5H5.605c-2.512 0-4.55-2.014-4.55-4.5V5.552c0-2.485 2.038-4.506 4.55-4.506h148.703c2.513 0 4.544 2.02 4.544 4.506V41.44z"/>
        <g fill="#FFF">
            <path d="M35.707 23.246c-.034-3.787 3.128-5.63 3.273-5.715-1.791-2.589-4.567-2.942-5.542-2.97-2.332-.244-4.593 1.383-5.78 1.383-1.212 0-3.04-1.36-5.011-1.32-2.537.039-4.91 1.495-6.21 3.755-2.686 4.61-.684 11.384 1.89 15.11 1.287 1.824 2.79 3.862 4.76 3.79 1.925-.079 2.645-1.217 4.969-1.217 2.303 0 2.978 1.217 4.986 1.171 2.067-.032 3.368-1.833 4.61-3.674 1.488-2.091 2.085-4.151 2.109-4.257-.049-.016-4.015-1.517-4.054-6.056zM31.915 12.11c1.036-1.285 1.744-3.032 1.548-4.805-1.5.066-3.375 1.028-4.454 2.284-.956 1.107-1.809 2.921-1.589 4.627 1.685.125 3.414-.842 4.495-2.106z"/>
        </g>
        <g fill="#FFF">
            <path d="M63.58 37.017h-2.692l-1.475-4.593H54.29l-1.405 4.593h-2.62L55.34 21.38h3.136l5.102 15.637zm-4.611-6.52l-1.333-4.083c-.141-.417-.406-1.4-.796-2.946h-.047a112.88 112.88 0 0 1-.75 2.946l-1.309 4.083h4.235zM76.636 31.24c0 1.918-.522 3.434-1.568 4.547-.936.99-2.099 1.485-3.486 1.485-1.498 0-2.575-.533-3.23-1.6h-.047v5.94h-2.527V29.453c0-1.206-.032-2.443-.094-3.712h2.222l.141 1.787h.048c.842-1.346 2.121-2.019 3.837-2.019 1.342 0 2.462.526 3.358 1.577.898 1.053 1.346 2.437 1.346 4.154zm-2.574.093c0-1.098-.249-2.003-.749-2.715-.546-.742-1.28-1.114-2.2-1.114-.623 0-1.19.207-1.696.615-.507.411-.839.948-.994 1.613-.078.31-.117.564-.117.764v1.88c0 .82.253 1.512.76 2.077.508.566 1.167.848 1.978.848.951 0 1.692-.365 2.222-1.09.53-.728.796-1.687.796-2.878zM89.717 31.24c0 1.918-.522 3.434-1.569 4.547-.935.99-2.098 1.485-3.485 1.485-1.499 0-2.575-.533-3.229-1.6h-.047v5.94H78.86V29.453c0-1.206-.032-2.443-.094-3.712h2.222l.141 1.787h.048c.841-1.346 2.12-2.019 3.838-2.019 1.34 0 2.46.526 3.358 1.577.895 1.053 1.344 2.437 1.344 4.154zm-2.574.093c0-1.098-.25-2.003-.75-2.715-.546-.742-1.278-1.114-2.199-1.114-.624 0-1.19.207-1.697.615a2.845 2.845 0 0 0-.993 1.613c-.077.31-.117.564-.117.764v1.88c0 .82.253 1.512.758 2.077.507.564 1.166.848 1.98.848.951 0 1.692-.365 2.222-1.09.53-.728.796-1.687.796-2.878zM104.343 32.632c0 1.33-.466 2.412-1.401 3.248-1.028.913-2.458 1.369-4.297 1.369-1.697 0-3.057-.325-4.087-.974l.585-2.088a6.972 6.972 0 0 0 3.653.998c.952 0 1.692-.213 2.224-.639.53-.425.795-.996.795-1.708 0-.635-.219-1.17-.656-1.603-.435-.434-1.161-.837-2.176-1.209-2.761-1.021-4.14-2.517-4.14-4.484 0-1.285.483-2.34 1.45-3.16.966-.82 2.253-1.23 3.862-1.23 1.436 0 2.628.247 3.58.742l-.632 2.042c-.89-.48-1.894-.72-3.019-.72-.889 0-1.583.218-2.081.65a1.85 1.85 0 0 0-.632 1.416c0 .619.24 1.13.724 1.532.421.37 1.186.773 2.295 1.206 1.357.542 2.354 1.175 2.995 1.901.639.724.958 1.63.958 2.711zM112.697 27.622h-2.785v5.474c0 1.393.49 2.088 1.474 2.088.452 0 .826-.039 1.122-.116l.07 1.902c-.497.185-1.153.277-1.965.277-.998 0-1.777-.301-2.34-.904-.561-.604-.843-1.617-.843-3.04V27.62h-1.66v-1.88h1.66v-2.065l2.482-.743v2.808h2.785v1.882zM125.263 31.287c0 1.733-.5 3.156-1.498 4.268-1.046 1.146-2.435 1.717-4.167 1.717-1.669 0-2.997-.549-3.988-1.646-.99-1.097-1.486-2.483-1.486-4.152 0-1.748.51-3.179 1.532-4.292 1.02-1.113 2.398-1.67 4.13-1.67 1.668 0 3.011.548 4.024 1.647.97 1.066 1.453 2.442 1.453 4.128zm-2.621.08c0-1.04-.224-1.93-.678-2.675-.53-.9-1.287-1.349-2.269-1.349-1.015 0-1.787.45-2.317 1.35-.454.744-.678 1.65-.678 2.722 0 1.04.224 1.931.678 2.674.547.9 1.31 1.349 2.295 1.349.965 0 1.722-.458 2.268-1.372.466-.758.7-1.66.7-2.698zM133.477 27.945a4.425 4.425 0 0 0-.797-.07c-.889 0-1.576.333-2.06 1-.42.587-.631 1.33-.631 2.226v5.916h-2.526l.024-7.724c0-1.3-.032-2.483-.095-3.55h2.2l.093 2.157h.07c.267-.741.688-1.338 1.264-1.786a3.073 3.073 0 0 1 1.826-.604c.234 0 .444.017.632.046v2.389zM144.777 30.846c0 .449-.03.827-.092 1.136h-7.58c.03 1.114.395 1.966 1.1 2.554.638.525 1.464.788 2.479.788 1.122 0 2.146-.177 3.067-.533l.396 1.739c-1.076.465-2.347.696-3.813.696-1.763 0-3.148-.514-4.155-1.542-1.005-1.029-1.509-2.41-1.509-4.141 0-1.7.468-3.116 1.406-4.245.981-1.206 2.307-1.809 3.976-1.809 1.64 0 2.88.603 3.723 1.809.667.957 1.002 2.142 1.002 3.548zm-2.409-.65c.017-.742-.148-1.384-.49-1.925-.438-.697-1.11-1.045-2.014-1.045-.826 0-1.498.34-2.012 1.021-.42.542-.67 1.191-.747 1.948h5.263v.001z"/>
        </g>
        <g fill="#FFF">
            <path d="M58.133 11.76c0 1.384-.418 2.425-1.254 3.124-.774.645-1.873.968-3.298.968-.706 0-1.31-.03-1.817-.092V8.204c.66-.106 1.371-.16 2.14-.16 1.356 0 2.38.293 3.069.878.773.661 1.16 1.607 1.16 2.839zm-1.31.035c0-.897-.239-1.584-.718-2.064-.478-.478-1.178-.718-2.098-.718-.392 0-.725.026-1 .08v5.745c.152.023.432.034.838.034.95 0 1.684-.262 2.201-.786.517-.524.778-1.288.778-2.291zM65.077 12.968c0 .852-.245 1.55-.736 2.098-.514.563-1.196.844-2.046.844-.82 0-1.474-.27-1.96-.81-.487-.54-.73-1.22-.73-2.04 0-.858.25-1.561.753-2.108.502-.546 1.178-.82 2.029-.82.82 0 1.48.27 1.978.808.474.524.712 1.201.712 2.028zm-1.288.04c0-.51-.111-.949-.333-1.314-.26-.442-.632-.663-1.114-.663-.499 0-.878.22-1.139.663-.223.365-.333.81-.333 1.337 0 .51.111.95.333 1.315.269.441.644.662 1.127.662.474 0 .846-.224 1.114-.674.23-.373.345-.814.345-1.326zM74.388 10.245l-1.748 5.539h-1.138l-.724-2.405c-.184-.6-.333-1.198-.45-1.79h-.022a13.009 13.009 0 0 1-.449 1.79l-.769 2.405h-1.15l-1.645-5.54h1.277l.631 2.634c.153.623.279 1.216.38 1.778h.022c.093-.463.246-1.053.461-1.766l.793-2.644h1.012l.76 2.587c.184.631.333 1.239.448 1.824h.034c.085-.57.211-1.177.38-1.824l.678-2.587h1.22v-.001zM80.827 15.784h-1.242V12.61c0-.977-.374-1.466-1.126-1.466-.368 0-.666.134-.897.403-.229.269-.345.586-.345.95v3.285h-1.242v-3.955c0-.487-.015-1.014-.045-1.586h1.092l.058.866h.034c.145-.269.36-.49.644-.668a2.113 2.113 0 0 1 1.126-.312c.521 0 .955.167 1.3.502.429.41.643 1.022.643 1.836v3.318zM84.252 15.784h-1.24v-8.08h1.24zM91.565 12.968c0 .852-.245 1.55-.736 2.098-.514.563-1.197.844-2.047.844-.821 0-1.474-.27-1.96-.81s-.729-1.22-.729-2.04c0-.858.25-1.561.753-2.108.502-.546 1.178-.82 2.027-.82.822 0 1.48.27 1.98.808.474.524.712 1.201.712 2.028zm-1.29.04c0-.51-.11-.949-.332-1.314-.26-.442-.632-.663-1.113-.663-.5 0-.88.22-1.14.663-.222.365-.332.81-.332 1.337 0 .51.111.95.333 1.315.269.441.643.662 1.127.662.474 0 .845-.224 1.113-.674.23-.373.345-.814.345-1.326zM97.576 15.784h-1.115l-.092-.638h-.035c-.381.509-.925.763-1.632.763-.527 0-.954-.168-1.275-.501-.292-.303-.437-.68-.437-1.128 0-.677.284-1.193.857-1.55.57-.357 1.374-.532 2.409-.524v-.103c0-.73-.386-1.094-1.16-1.094-.551 0-1.037.137-1.457.41l-.252-.809c.519-.318 1.16-.478 1.916-.478 1.46 0 2.193.764 2.193 2.291v2.04c0 .553.027.994.08 1.32zm-1.29-1.904v-.854c-1.37-.023-2.054.349-2.054 1.116 0 .29.078.506.238.65.16.145.364.216.607.216.272 0 .527-.086.76-.256a1.048 1.048 0 0 0 .45-.872zM104.634 15.784h-1.102l-.058-.89h-.035c-.352.677-.951 1.015-1.794 1.015-.673 0-1.234-.262-1.678-.786-.445-.524-.666-1.204-.666-2.04 0-.896.24-1.622.724-2.177.468-.517 1.042-.775 1.724-.775.75 0 1.276.25 1.574.752h.024v-3.18h1.243v6.589c0 .539.014 1.036.044 1.492zm-1.287-2.336v-.924c0-.16-.012-.289-.034-.387a1.4 1.4 0 0 0-.45-.747c-.23-.2-.51-.302-.83-.302-.464 0-.826.183-1.093.548-.264.365-.398.832-.398 1.402 0 .547.126.992.381 1.333.27.365.632.547 1.086.547a1.2 1.2 0 0 0 .981-.456c.24-.28.357-.62.357-1.014zM115.257 12.968c0 .852-.245 1.55-.736 2.098-.514.563-1.195.844-2.047.844-.819 0-1.472-.27-1.96-.81-.486-.54-.73-1.22-.73-2.04 0-.858.251-1.561.753-2.108.503-.546 1.179-.82 2.03-.82.82 0 1.48.27 1.978.808.474.524.712 1.201.712 2.028zm-1.287.04c0-.51-.112-.949-.333-1.314-.262-.442-.632-.663-1.116-.663-.497 0-.877.22-1.138.663-.223.365-.334.81-.334 1.337 0 .51.112.95.334 1.315.269.441.643.662 1.127.662.474 0 .847-.224 1.115-.674.229-.373.345-.814.345-1.326zM121.935 15.784h-1.24V12.61c0-.977-.375-1.466-1.128-1.466a1.12 1.12 0 0 0-.896.403c-.23.269-.344.586-.344.95v3.285h-1.244v-3.955c0-.487-.014-1.014-.044-1.586h1.09l.059.866h.034c.146-.269.362-.49.644-.668a2.117 2.117 0 0 1 1.127-.312c.52 0 .954.167 1.299.502.43.41.643 1.022.643 1.836v3.318zM130.295 11.167h-1.368v2.691c0 .684.243 1.026.724 1.026.223 0 .408-.02.553-.058l.032.934c-.245.092-.567.138-.964.138-.491 0-.873-.148-1.149-.444-.277-.296-.415-.795-.415-1.494v-2.793h-.816v-.922h.816V9.23l1.218-.365v1.379h1.367v.923h.002zM136.87 15.784h-1.243v-3.15c0-.992-.375-1.49-1.125-1.49-.576 0-.97.289-1.185.864-.037.122-.058.27-.058.443v3.332h-1.241v-8.08h1.24v3.338h.024c.391-.607.952-.91 1.679-.91.514 0 .94.167 1.277.502.421.417.632 1.037.632 1.857v3.294zM143.653 12.752c0 .221-.017.407-.046.558h-3.726c.017.548.195.965.54 1.254.315.259.722.388 1.22.388.55 0 1.053-.087 1.506-.262l.194.855c-.53.228-1.153.342-1.875.342-.865 0-1.547-.252-2.04-.758-.495-.505-.74-1.183-.74-2.034 0-.835.228-1.53.69-2.085.48-.592 1.131-.889 1.953-.889.803 0 1.414.297 1.826.889.333.47.498 1.051.498 1.742zm-1.185-.318c.009-.366-.073-.68-.241-.946-.216-.342-.544-.514-.988-.514-.406 0-.736.167-.989.502a1.855 1.855 0 0 0-.369.958h2.587z"/>
        </g>
    </g>
</svg>
