<svg xmlns="http://www.w3.org/2000/svg" width="1440" height="24" viewBox="0 0 1440 24">
    <path fill="#2b69b2" fill-rule="evenodd" d="M1440 19.442V4.052c-5.4.101-10.7.101-15.6.304-18.3.405-37.9-1.013-52 .607-6.2-.405-11.5-1.417-21.4-1.114-3.1.102-5.3.81-9.7.912-5.1.202-9.5-1.215-14.2.1-4.3-.1-8.9-.708-12.9-.708-9.1 0-3.1.405-9.7.709-7.7.405-18.2.405-22.6 1.114a65.98 65.98 0 0 0-8.5-1.114c1.1.202-18.9.81-20.3.81-9.8.101-19.5-.203-29-.203-9.3-.1-16.5-.1-24.9-.303-9.7-.304-17.6-1.013-28.4-1.114-35-.405-73.3 1.62-108 1.114-16-.304-35.6-.81-49.8-1.52-14.7-.708-19.1-1.72-38-2.024-3 0-7.4.202-10.2.101-4.5-.101-5.5-.607-10.1-.81-8.4-.405-13.8-.101-23.4-.101-19 0-22.5-1.418-44.6-.506-17.6.708-32.8 2.126-51.6 2.53-11.5.305-13.3.305-23.2.912-10.5.608-12.7.608-24.3.81-11.3.304-19.2 1.114-30 1.519-11.8.506-22.9.101-27.2 1.721-4.9-.101-7.4-.304-12-.506-5.7-.203-8.6-.203-11.6-.304-8.2-.101-20.2 0-29.5 0-7.1.101-5.8.304-12.6.203-3.6-.102-4.8-.81-11-.912a162.592 162.592 0 0 0-19.1.81c-12.4-2.025-16.8-2.733-40.6-1.417-25.5 1.417-51.7-1.823-79.9-1.519-13.7.101-24.5.304-38.3.203-18.8-.102-38-.507-57.2-.405-14.6.1-26.2.708-40.1 1.012-15.4.304-34.5 0-33.8 2.126-9.4.203-10.7-.506-17.1-.708-11.4-.304-16.9.506-26.1.81-13.1.405-6.7.202-16.7-.507-11.6-.708-7.8-.405-20 .608-6-.405-15.8-1.316-24-1.316-5.8 0-13 .405-19.8.405-7.6 0-15.2-.102-23.5 0a204.597 204.597 0 0 1-21.2-.608c-19.3-1.012-47.6-.405-68.8-1.012-16.1-.507-18.6-1.722-35.1-.405-21 1.62-23.5 1.012-46.2 1.316-5.9.101-10.4.506-16 .405-2.6 0-3.2-.81-7.4-.81H0v12.15c7.8.506 11.6.81 22.1 1.114 16.2.405 27.6 1.62 45.6 1.62 16.2 0 36.1-.102 52.4-.507 18.3-.405 37.9 1.013 52-.607 6.2.405 11.5 1.417 21.4 1.114 3.1-.102 5.3-.81 9.7-.912 5.1-.202 9.5 1.215 14.2-.1 4.3.1 8.9.708 12.9.708 9.1 0 3.1-.405 9.7-.709 7.7-.405 18.2-.405 22.5-1.114 2.807.555 5.646.928 8.5 1.114-1.1-.202 18.9-.81 20.3-.81 9.8-.101 19.5.203 29 .203 9.3.1 16.5.1 24.9.303 9.7.304 17.6 1.013 28.4 1.114 35 .405 73.3-1.62 108-1.114 16 .304 35.6.81 49.8 1.52 14.7.708 19.1 1.72 38 2.024 3 0 7.4-.202 10.2-.101 4.5.101 5.5.607 10.1.81 8.4.405 13.8.101 23.4.101 19 0 22.5 1.418 44.6.506 17.6-.708 32.8-2.126 51.6-2.53 11.5-.305 13.3-.305 23.2-.912 10.5-.608 12.7-.608 24.3-.81 11.3-.304 19.2-1.114 30-1.519 11.8-.506 22.9-.101 27.2-1.721 4.9.101 7.4.304 12 .506 5.7.203 8.6.203 11.6.304 8.2.101 20.2 0 29.5 0 7.1-.101 5.8-.304 12.6-.203 3.6.102 4.8.81 11 .912a162.82 162.82 0 0 0 19.1-.81c12.4 2.025 16.8 2.733 40.599 1.417 25.5-1.417 51.701 1.823 79.901 1.519 13.7-.101 24.5-.304 38.3-.203 18.8.102 38 .507 57.2.405 14.599-.1 26.2-.708 40.099-1.012 15.401-.304 34.5 0 33.801-2.126 9.4-.203 10.699.506 17.1.708 11.4.304 16.9-.506 26.099-.81 13.101-.405 6.701-.202 16.701.507 11.599.708 7.799.405 20-.608 6 .405 15.799 1.316 24 1.316 5.799 0 13-.405 19.799-.405 7.601 0 15.201.102 23.5 0 7.073-.164 14.149.039 21.201.608 19.299 1.012 47.599.405 68.799 1.012 1.201.102 2.201.102 3.101.203"/>
</svg>
