<svg xmlns="http://www.w3.org/2000/svg" width="46" height="46" viewBox="0 0 46 46">
    <g fill="none" fill-rule="evenodd">
        <circle cx="23" cy="23" r="23" fill="#FF6800"/>
        <g fill="#FBFCFD">
            <path d="M31.727 15.68l.823-1.283c.54-.84.296-1.958-.543-2.497l-3.105-1.995a1.808 1.808 0 0 0-2.497.544l-.824 1.282 6.146 3.948zM13 31.61l.521 4.896c.036.333.37.548.687.441l4.67-1.561L13 31.609zM17.372 30.292l8.962-13.951.91.585-8.962 13.95-.91-.584zm7.625-17.65L13.45 30.614l6.146 3.947L31.142 16.59l-6.145-3.947z"/>
        </g>
    </g>
</svg>
