<svg xmlns="http://www.w3.org/2000/svg" xmlns:xlink="http://www.w3.org/1999/xlink" width="216" height="82" viewBox="0 0 216 82">
    <defs>
        <path id="a" d="M0 77.283h163.28V1.867H0z"/>
    </defs>
    <g fill="none" fill-rule="evenodd">
        <path fill="#7DB52C" d="M32.823 62.125h93.854V7.015H32.823z"/>
        <path fill="#F7B900" d="M122.081 70.475h61.467v-45.09h-61.467z"/>
        <path fill="#D04244" d="M104.273 67.305h22.404V34.486h-22.404z"/>
        <path fill="#FEFEFE" d="M69.706 70.475h19.988v-2.108H69.706z"/>
        <path stroke="#2D74C8" d="M69.706 70.475h19.988v-2.108H69.706z"/>
        <path fill="#FEFEFE" d="M61.464 76.639h36.472v-5.101H61.464z"/>
        <path stroke="#2D74C8" d="M61.464 76.639h36.472v-5.102H61.464z"/>
        <path stroke="#2D74C8" stroke-linecap="round" stroke-linejoin="round" stroke-opacity=".277" stroke-width="2" d="M214.618 76.918H1.405M174.676 80.184H42.089"/>
        <path fill="#FEFEFE" d="M27.26 1.667v65.638h74.217v-5.347H32.823V7.015h93.754v12.097h5.563V1.667z"/>
        <g transform="translate(27.038 1)">
            <path stroke="#2D74C8" d="M.222.456v65.638H74.44v-5.347H5.785V5.804H99.54V17.9h5.563V.456z"/>
            <path fill="#FEFEFE" d="M156.838 17.901H95.462a6.223 6.223 0 0 0-6.22 6.227v5.655h6.279v-4.999h60.224v43.76h-53.343v3.47a3.411 3.411 0 0 1-3.41 3.414h57.846a6.223 6.223 0 0 0 6.219-6.227V24.128a6.223 6.223 0 0 0-6.219-6.227"/>
            <path stroke="#2D74C8" d="M156.838 17.901H95.462a6.223 6.223 0 0 0-6.22 6.227v5.655h6.279v-4.999h60.224v43.76h-53.343v3.47a3.411 3.411 0 0 1-3.41 3.414h57.846a6.223 6.223 0 0 0 6.219-6.227V24.128a6.223 6.223 0 0 0-6.219-6.227z"/>
            <path fill="#FEFEFE" d="M88.42 68.21a2.115 2.115 0 0 0-2.113 2.116c0 1.169.946 2.117 2.114 2.117a2.115 2.115 0 0 0 2.113-2.117 2.115 2.115 0 0 0-2.113-2.116"/>
            <path stroke="#2D74C8" d="M88.42 68.21a2.115 2.115 0 0 0-2.113 2.116c0 1.169.946 2.117 2.114 2.117a2.115 2.115 0 0 0 2.113-2.117 2.115 2.115 0 0 0-2.113-2.116z"/>
            <mask id="b" fill="#fff">
                <use xlink:href="#a"/>
            </mask>
            <path fill="#FEFEFE" d="M77.785 66.094h21.271V33.665h-21.27v32.43zm10.635 7.04a2.807 2.807 0 0 1-2.804-2.808 2.807 2.807 0 0 1 2.804-2.808 2.807 2.807 0 0 1 2.806 2.808 2.807 2.807 0 0 1-2.806 2.809zm10.573-43.35H77.849a3.412 3.412 0 0 0-3.41 3.413v38.817a3.412 3.412 0 0 0 3.41 3.414h21.144a3.412 3.412 0 0 0 3.41-3.414V33.197a3.412 3.412 0 0 0-3.41-3.414z" mask="url(#b)"/>
            <path stroke="#2D74C8" d="M77.785 66.094h21.271V33.665h-21.27v32.43zm10.635 7.04a2.807 2.807 0 0 1-2.804-2.808 2.807 2.807 0 0 1 2.804-2.808 2.807 2.807 0 0 1 2.806 2.808 2.807 2.807 0 0 1-2.806 2.809zm10.573-43.35H77.849a3.412 3.412 0 0 0-3.41 3.413v38.817a3.412 3.412 0 0 0 3.41 3.414h21.144a3.412 3.412 0 0 0 3.41-3.414V33.197a3.412 3.412 0 0 0-3.41-3.414z" mask="url(#b)"/>
        </g>
    </g>
</svg>
