<svg xmlns="http://www.w3.org/2000/svg" xmlns:xlink="http://www.w3.org/1999/xlink" width="502" height="372" viewBox="0 0 502 372">
    <defs>
        <path id="a" d="M0 0h943v674H0z"/>
    </defs>
    <g fill="none" fill-rule="evenodd" opacity=".566" transform="translate(-430 -273)">
        <mask id="b" fill="#fff">
            <use xlink:href="#a"/>
        </mask>
        <path fill="#FFF" d="M612.566 457.979c32.32 2.853 60.822-21.049 63.674-53.373L559.207 394.29c-2.848 32.321 21.041 60.836 53.359 63.689zm51.451-133.057c-.927 10.548 6.864 19.862 17.409 20.781 10.544.931 19.85-6.862 20.774-17.414.934-10.545-6.86-19.854-17.405-20.789-10.548-.927-19.85 6.877-20.778 17.422zm-117.032-10.316c-.927 10.549 6.867 19.854 17.412 20.782 10.545.93 19.848-6.87 20.775-17.418.934-10.545-6.864-19.858-17.409-20.786-10.54-.93-19.85 6.874-20.778 17.422zm219.122-113.39l-307.03-28.807-6.717 310.62 293.599 12.83 20.148-294.643zm62.139-51.759l-27.893 408.01-406.567-17.766 9.306-430.132 425.154 39.888zM379.849 461.398L271.327 355.291l-11.723-11.472 12.001-11.168 113.306-105.417 1.287-59.311-162.769 1.404 30.918 330.766 125.074-18.709.428-19.986zm4.597-212.372l-102.195 95.07 98.06 95.894 4.135-190.964zm118.743 311.103l84.11 82.24 74.83-75.295-158.94-6.945zm145.214-443.248L594.03 54.03l-56.386 52.457 110.758 10.394zm214.61 248.084l-31.356-36.248-4.976 72.807 36.333-36.56zM210.705 201.122l-106.66 12.992 43.95 241.721 84.652-20.023-21.942-234.69zm-114.292 58.38L0 294.145l62.766 136.638 61.858-16.105-28.212-155.174zM234.33 642.998l-4.567 15.38 15.37 4.568 4.563-15.376-15.366-4.572zM343.854 72.413l-4.575 15.376 15.378 4.568 4.567-15.376-15.37-4.568zm264.539 563.88l-4.571 15.371 15.374 4.573 4.564-15.376-15.367-4.569zm-338.983-3.616l-4.57 15.376 15.374 4.576 4.563-15.38-15.367-4.572zm29.022-101.87l-7.753 26.09 26.085 7.756 7.753-26.09-26.085-7.755zm63.168 58.667l-7.75 26.078 26.089 7.76 7.749-26.087-26.088-7.751zm-59.325-487.608l-7.753 26.082 26.088 7.763 7.746-26.094-26.081-7.751zM838.138 451.21l-7.753 26.079 26.088 7.759 7.749-26.086-26.084-7.752zM513.167 647.13l-6.15 20.714 20.71 6.156 6.154-20.718-20.714-6.152zm-82.38-61.928l-12.853 43.263 43.256 12.865 12.852-43.271-43.256-12.857zM883.25 362.697L870.4 405.961l43.256 12.864 12.856-43.267-43.26-12.86zM454.142 25.084L441.29 68.35l43.256 12.864 12.856-43.27-43.26-12.861zm223.696 586.181l-12.853 43.264 43.257 12.864 12.856-43.271-43.26-12.857zm194.748-396.186l-20.92 70.427 70.41 20.94L943 236.014l-70.414-20.936zM775.89 20.928l-20.921 70.434-70.41-20.943L705.476 0l70.414 20.928z" mask="url(#b)"/>
    </g>
</svg>
